<?xml version="1.0" encoding="UTF-8"?>
<!DOCTYPE svg PUBLIC "-//W3C//DTD SVG 1.1//EN" "http://www.w3.org/Graphics/SVG/1.1/DTD/svg11.dtd">
<svg xmlns="http://www.w3.org/2000/svg" version="1.1" width="2084px" height="2084px" style="shape-rendering:geometricPrecision; text-rendering:geometricPrecision; image-rendering:optimizeQuality; fill-rule:evenodd; clip-rule:evenodd" xmlns:xlink="http://www.w3.org/1999/xlink">
<g><path style="opacity:0.998" fill="#3d924d" d="M 1574.5,359.5 C 1572.79,360.635 1572.12,362.302 1572.5,364.5C 1566.65,376.21 1559.31,386.876 1550.5,396.5C 1539.08,362.17 1518.75,334.337 1489.5,313C 1477.17,305.497 1464.17,299.664 1450.5,295.5C 1448.15,335.091 1456.65,372.091 1476,406.5C 1488.46,424.632 1504.29,438.965 1523.5,449.5C 1522.19,454.074 1521.19,458.74 1520.5,463.5C 1493.74,450.246 1469.57,433.246 1448,412.5C 1446.11,449.224 1458.95,479.724 1486.5,504C 1493.07,509.413 1499.73,514.579 1506.5,519.5C 1503.25,527.491 1500.75,535.824 1499,544.5C 1490.7,589.44 1486.37,634.774 1486,680.5C 1485.33,707.167 1485.33,733.833 1486,760.5C 1489.04,779.687 1485.7,797.687 1476,814.5C 1475.33,841.167 1475.33,867.833 1476,894.5C 1481.23,900.149 1484.56,906.816 1486,914.5C 1488.09,926.427 1489.59,938.427 1490.5,950.5C 1482.7,949.753 1475.36,951.086 1468.5,954.5C 1466.88,952.847 1465.71,950.847 1465,948.5C 1459.49,931.566 1459.33,914.899 1464.5,898.5C 1464.7,895.226 1463.53,892.559 1461,890.5C 1459.7,880.533 1458.87,870.533 1458.5,860.5C 1456.83,860.5 1455.17,860.5 1453.5,860.5C 1453.55,849.152 1453.22,837.819 1452.5,826.5C 1449.29,826.012 1446.46,826.679 1444,828.5C 1443.14,841.17 1442.31,853.837 1441.5,866.5C 1445.13,866.157 1446.8,867.823 1446.5,871.5C 1448.92,897.849 1452.59,924.016 1457.5,950C 1457.13,957.563 1456.3,965.063 1455,972.5C 1451.84,975.08 1448.51,977.413 1445,979.5C 1443.63,1002.14 1443.13,1024.81 1443.5,1047.5C 1427.35,1048.81 1419.52,1057.47 1420,1073.5C 1423.88,1078.48 1426.22,1084.14 1427,1090.5C 1428.6,1097.75 1429.43,1105.09 1429.5,1112.5C 1425.01,1119.45 1422.18,1127.12 1421,1135.5C 1415.74,1163.37 1416.57,1191.04 1423.5,1218.5C 1413.48,1236.58 1406.15,1255.92 1401.5,1276.5C 1401.05,1290.09 1402.05,1303.42 1404.5,1316.5C 1405.01,1321.87 1405.84,1327.21 1407,1332.5C 1409.73,1336.07 1411.56,1340.07 1412.5,1344.5C 1415.18,1353.54 1419.68,1361.54 1426,1368.5C 1436.88,1380.1 1449.22,1389.76 1463,1397.5C 1463.67,1398.83 1463.67,1400.17 1463,1401.5C 1460.98,1405.66 1458.81,1409.66 1456.5,1413.5C 1442.44,1426.69 1425.78,1434.86 1406.5,1438C 1400.54,1439.16 1394.54,1439.99 1388.5,1440.5C 1364.59,1442.44 1340.59,1442.94 1316.5,1442C 1311.1,1441.77 1305.77,1441.11 1300.5,1440C 1295.97,1435.42 1293.13,1429.92 1292,1423.5C 1290.93,1417.52 1290.1,1411.52 1289.5,1405.5C 1289.83,1398.14 1289.5,1390.8 1288.5,1383.5C 1268.97,1373.97 1248.3,1368.97 1226.5,1368.5C 1208.37,1366.07 1191.04,1360.9 1174.5,1353C 1159.21,1339.51 1147.37,1342.01 1139,1360.5C 1122.76,1379.94 1103.93,1382.77 1082.5,1369C 1078.5,1365.67 1074.5,1362.33 1070.5,1359C 1069.55,1358.52 1068.55,1358.35 1067.5,1358.5C 1040.91,1339.86 1013.91,1321.69 986.5,1304C 974.833,1303.67 963.167,1303.33 951.5,1303C 942.747,1301.14 934.08,1298.97 925.5,1296.5C 917.86,1294.14 911.193,1295.8 905.5,1301.5C 904.206,1302.29 903.039,1303.29 902,1304.5C 899.12,1309.9 896.62,1315.4 894.5,1321C 890.355,1323.43 886.022,1323.93 881.5,1322.5C 855.693,1283.19 828.527,1244.86 800,1207.5C 796.071,1205.02 791.904,1203.02 787.5,1201.5C 785.453,1193.01 782.619,1184.68 779,1176.5C 752.185,1138.54 730.851,1097.54 715,1053.5C 713.231,1046.28 712.231,1038.94 712,1031.5C 707.899,1038.46 704.566,1045.8 702,1053.5C 697.124,1068.1 692.957,1082.77 689.5,1097.5C 667.877,1065.92 650.71,1031.92 638,995.5C 628.231,977.738 616.898,961.071 604,945.5C 584.695,927.195 565.695,908.529 547,889.5C 541.099,880.263 534.432,871.596 527,863.5C 517.635,855.301 508.802,846.634 500.5,837.5C 524.143,804.016 531.976,767.016 524,726.5C 504.699,750.635 483.199,772.635 459.5,792.5C 456.202,787.868 452.536,783.534 448.5,779.5C 442.587,772.043 436.42,764.71 430,757.5C 428.223,755.21 426.056,753.543 423.5,752.5C 420.877,748.209 417.544,744.543 413.5,741.5C 409.189,735.674 405.022,729.674 401,723.5C 399.889,718.389 400.889,713.722 404,709.5C 412.483,699.84 421.983,691.507 432.5,684.5C 440.132,691.631 447.632,698.964 455,706.5C 455.396,709.657 456.229,712.657 457.5,715.5C 460.511,723.673 465.177,730.84 471.5,737C 477.822,740.189 481.989,738.356 484,731.5C 484.601,729.863 485.101,728.197 485.5,726.5C 481.976,720.274 483.309,715.441 489.5,712C 493.363,710.268 497.363,708.934 501.5,708C 510.142,706.836 518.808,706.003 527.5,705.5C 544.869,705.702 562.202,705.702 579.5,705.5C 584.277,697.596 590.944,691.762 599.5,688C 601.049,686.786 602.215,685.286 603,683.5C 606.103,673.846 606.936,664.013 605.5,654C 608.685,636.818 619.019,627.151 636.5,625C 641.167,624.667 645.833,624.333 650.5,624C 652.742,622.014 653.742,619.514 653.5,616.5C 652.722,609.998 651.222,603.665 649,597.5C 648.833,594.167 648.667,590.833 648.5,587.5C 650.409,573.697 652.076,559.863 653.5,546C 653.333,542.167 653.167,538.333 653,534.5C 649.001,526.841 647.168,518.675 647.5,510C 647.366,502.272 648.532,494.772 651,487.5C 654.155,484.333 657.988,482.499 662.5,482C 673.164,480.044 683.83,480.044 694.5,482C 700.724,488.974 707.391,489.307 714.5,483C 732.156,481.606 749.823,480.439 767.5,479.5C 767.46,476.575 768.293,473.909 770,471.5C 783.891,453.272 799.558,436.605 817,421.5C 822.699,413.439 827.365,404.772 831,395.5C 839.174,389.729 846.841,390.395 854,397.5C 860.896,415.785 872.063,430.952 887.5,443C 895.778,448.278 903.778,453.945 911.5,460C 919.401,462.756 926.401,461.256 932.5,455.5C 926.539,445.061 926.039,434.394 931,423.5C 941.307,418.763 951.474,413.596 961.5,408C 970.949,401.552 980.116,394.718 989,387.5C 989.761,380.447 990.761,373.447 992,366.5C 1001.5,355.667 1011.67,345.5 1022.5,336C 1027.17,335.333 1031.83,335.333 1036.5,336C 1040.03,341.36 1044.19,341.86 1049,337.5C 1055.96,327.252 1061.62,316.252 1066,304.5C 1078.83,292.517 1083.33,277.85 1079.5,260.5C 1079.46,250.57 1083.96,243.57 1093,239.5C 1103.45,211.105 1122.28,190.272 1149.5,177C 1159.85,175.044 1170.18,175.21 1180.5,177.5C 1182.78,189.223 1188.11,199.39 1196.5,208C 1199.79,210.478 1203.46,212.144 1207.5,213C 1215.5,213.643 1223.5,214.143 1231.5,214.5C 1231.9,220.96 1234.23,226.627 1238.5,231.5C 1242.77,234.099 1247.1,234.099 1251.5,231.5C 1252.25,232.376 1252.75,233.376 1253,234.5C 1255.36,230.562 1258.53,227.395 1262.5,225C 1277.69,216.738 1293.36,209.571 1309.5,203.5C 1319.92,206.25 1328.25,203.25 1334.5,194.5C 1346.43,189.391 1358.76,187.891 1371.5,190C 1377.66,192.751 1383.99,194.917 1390.5,196.5C 1393.97,196.544 1396.64,195.044 1398.5,192C 1412.24,187.066 1426.24,183.066 1440.5,180C 1447.83,174 1455.17,168 1462.5,162C 1471.46,159.51 1480.46,157.176 1489.5,155C 1498.69,147.235 1507.69,139.235 1516.5,131C 1535,123.5 1554,121.5 1573.5,125C 1579.69,127.854 1583.69,132.521 1585.5,139C 1576.87,154.42 1568.37,169.92 1560,185.5C 1557.82,199.25 1558.32,212.917 1561.5,226.5C 1562.97,228.498 1564.8,230.164 1567,231.5C 1567.88,248.825 1568.55,266.158 1569,283.5C 1582.4,298.543 1586.4,315.876 1581,335.5C 1579.14,343.594 1576.98,351.594 1574.5,359.5 Z"/></g>
<g><path style="opacity:0.973" fill="#bea051" d="M 1550.5,396.5 C 1556.45,415.731 1560.28,435.397 1562,455.5C 1622.11,551.407 1668.45,653.74 1701,762.5C 1727.66,851.938 1728.33,941.605 1703,1031.5C 1678.16,1111.38 1633.33,1177.55 1568.5,1230C 1519.5,1269.01 1464.83,1297.84 1404.5,1316.5C 1402.05,1303.42 1401.05,1290.09 1401.5,1276.5C 1515.3,1232.2 1602.8,1157.2 1664,1051.5C 1686.37,1005.98 1696.87,957.816 1695.5,907C 1695.06,865.325 1690.23,824.158 1681,783.5C 1654.49,673.123 1612.99,568.79 1556.5,470.5C 1549.36,465.191 1542.36,459.691 1535.5,454C 1531.59,452.209 1527.59,450.709 1523.5,449.5C 1504.29,438.965 1488.46,424.632 1476,406.5C 1456.65,372.091 1448.15,335.091 1450.5,295.5C 1464.17,299.664 1477.17,305.497 1489.5,313C 1518.75,334.337 1539.08,362.17 1550.5,396.5 Z"/></g>
<g><path style="opacity:0.975" fill="#bea051" d="M 432.5,684.5 C 421.983,691.507 412.483,699.84 404,709.5C 400.889,713.722 399.889,718.389 401,723.5C 405.022,729.674 409.189,735.674 413.5,741.5C 398.229,789.687 389.063,839.02 386,889.5C 381.676,958.846 398.009,1022.85 435,1081.5C 468.241,1132.74 509.741,1176.24 559.5,1212C 593.017,1236.1 629.017,1256.1 667.5,1272C 794.978,1327.7 928.311,1356.53 1067.5,1358.5C 1068.55,1358.35 1069.55,1358.52 1070.5,1359C 1074.5,1362.33 1078.5,1365.67 1082.5,1369C 1103.93,1382.77 1122.76,1379.94 1139,1360.5C 1147.37,1342.01 1159.21,1339.51 1174.5,1353C 1191.04,1360.9 1208.37,1366.07 1226.5,1368.5C 1210.29,1374.22 1193.62,1378.72 1176.5,1382C 1153.22,1386.49 1129.88,1390.66 1106.5,1394.5C 1121.81,1401.31 1134.64,1411.31 1145,1424.5C 1157.57,1440.25 1167.4,1457.58 1174.5,1476.5C 1144.5,1476.5 1114.5,1476.5 1084.5,1476.5C 1089.89,1448.1 1079.22,1428.6 1052.5,1418C 1032.11,1413.91 1015.61,1420.07 1003,1436.5C 995.694,1448.61 993.528,1461.61 996.5,1475.5C 968.177,1476.38 939.844,1476.71 911.5,1476.5C 911.191,1462.93 915.358,1450.93 924,1440.5C 937.908,1423.26 953.742,1408.09 971.5,1395C 888.732,1384.06 807.732,1365.39 728.5,1339C 652.266,1313.39 581.933,1277.05 517.5,1230C 484.371,1204.54 454.871,1175.37 429,1142.5C 390.184,1079.38 368.184,1010.71 363,936.5C 358.264,851.316 370.598,768.65 400,688.5C 429.44,606.931 469.774,531.597 521,462.5C 522.482,412.675 541.649,371.175 578.5,338C 594.288,324.266 611.621,312.766 630.5,303.5C 631.237,337.224 624.07,369.224 609,399.5C 592.178,430.993 566.845,452.326 533,463.5C 494.041,534.747 460.541,608.413 432.5,684.5 Z"/></g>
<g><path style="opacity:0.972" fill="#bea051" d="M 1574.5,359.5 C 1619.98,381.436 1643.65,417.769 1645.5,468.5C 1644.57,478.848 1643.4,489.182 1642,499.5C 1641.67,509.833 1641.33,520.167 1641,530.5C 1621.29,514.131 1605.29,494.798 1593,472.5C 1591.59,468.943 1590.59,465.276 1590,461.5C 1586.75,428.663 1580.92,396.33 1572.5,364.5C 1572.12,362.302 1572.79,360.635 1574.5,359.5 Z"/></g>
<g><path style="opacity:0.971" fill="#bea051" d="M 511.5,360.5 C 512.598,361.601 512.765,362.934 512,364.5C 500.102,395.757 493.436,428.09 492,461.5C 486.019,484.984 473.852,504.484 455.5,520C 451.446,522.694 447.112,524.861 442.5,526.5C 437.141,497.884 437.308,469.218 443,440.5C 445.706,425.351 452.039,412.017 462,400.5C 473.612,386.55 486.779,374.384 501.5,364C 504.85,362.514 508.184,361.347 511.5,360.5 Z"/></g>
<g><path style="opacity:0.986" fill="#bea051" d="M 1520.5,463.5 C 1526.81,466.988 1533.14,470.488 1539.5,474C 1553.28,486.036 1563.78,500.536 1571,517.5C 1575.2,527.075 1578.7,536.908 1581.5,547C 1581.17,547.5 1580.83,548 1580.5,548.5C 1560.99,539.052 1540.66,531.886 1519.5,527C 1515.02,524.672 1510.69,522.172 1506.5,519.5C 1499.73,514.579 1493.07,509.413 1486.5,504C 1458.95,479.724 1446.11,449.224 1448,412.5C 1469.57,433.246 1493.74,450.246 1520.5,463.5 Z"/></g>
<g><path style="opacity:0.968" fill="#bea051" d="M 629.5,419.5 C 628.191,456.222 614.191,487.388 587.5,513C 578.462,520.522 568.462,526.522 557.5,531C 545.013,534.538 532.679,538.538 520.5,543C 514.671,545.411 509.338,548.578 504.5,552.5C 509.542,528.261 519.375,505.928 534,485.5C 536.074,483.548 538.241,481.715 540.5,480C 563.97,469.105 586.303,456.438 607.5,442C 616.377,435.957 623.71,428.457 629.5,419.5 Z"/></g>
<g><path style="opacity:0.971" fill="#bea051" d="M 1663.5,473.5 C 1669.97,476.451 1675.47,480.784 1680,486.5C 1698.2,510.114 1707.04,536.948 1706.5,567C 1705.51,596.804 1699.67,625.638 1689,653.5C 1688.61,654.428 1687.95,655.095 1687,655.5C 1680.49,651.847 1675.83,646.514 1673,639.5C 1664.41,616.285 1659.57,592.285 1658.5,567.5C 1662.92,536.271 1664.58,504.938 1663.5,473.5 Z"/></g>
<g><path style="opacity:0.975" fill="#bea051" d="M 413.5,475.5 C 414.5,475.5 415.5,475.5 416.5,475.5C 414.798,504.657 416.298,533.657 421,562.5C 430.319,591.298 426.653,618.298 410,643.5C 407.036,647.466 403.703,651.133 400,654.5C 360.366,595.795 362.032,538.461 405,482.5C 407.996,480.267 410.829,477.934 413.5,475.5 Z"/></g>
<g><path style="opacity:0.97" fill="#bea051" d="M 573.5,529.5 C 574.807,563.08 564.974,593.08 544,619.5C 534.167,629.997 522.667,638.164 509.5,644C 491.693,646.367 474.693,651.367 458.5,659C 456.291,660.873 454.458,663.04 453,665.5C 454.946,632.103 469.113,605.269 495.5,585C 514.93,575.87 533.597,565.537 551.5,554C 558.262,549.242 564.429,543.742 570,537.5C 571.454,534.929 572.62,532.262 573.5,529.5 Z"/></g>
<g><path style="opacity:0.971" fill="#bea051" d="M 1508.5,529.5 C 1525.08,543.133 1542.08,556.3 1559.5,569C 1573.79,578.399 1588.63,586.899 1604,594.5C 1615.32,610.481 1623.99,627.814 1630,646.5C 1631.05,651.448 1631.55,656.448 1631.5,661.5C 1588.05,653.374 1553.22,631.707 1527,596.5C 1514.13,576.034 1507.97,553.7 1508.5,529.5 Z"/></g>
<g><path style="opacity:0.971" fill="#bea051" d="M 1731.5,565.5 C 1758.92,604.519 1770.09,647.853 1765,695.5C 1763.6,704.419 1761.27,713.085 1758,721.5C 1751.52,735.118 1744.52,748.451 1737,761.5C 1733.67,769.327 1730.84,777.327 1728.5,785.5C 1721.85,774.052 1717.68,761.719 1716,748.5C 1712.86,726.601 1711.86,704.601 1713,682.5C 1722.71,648.93 1729.21,614.764 1732.5,580C 1732.32,575.147 1731.99,570.314 1731.5,565.5 Z"/></g>
<g><path style="opacity:0.974" fill="#bea051" d="M 345.5,568.5 C 346.777,569.694 347.444,571.36 347.5,573.5C 348.652,607.716 353.485,641.383 362,674.5C 364.483,680.96 367.15,687.293 370,693.5C 374.386,717.946 372.719,741.946 365,765.5C 362.839,770.492 360.172,775.159 357,779.5C 345.844,767.872 337.177,754.539 331,739.5C 304.813,679.837 309.646,622.837 345.5,568.5 Z"/></g>
<g><path style="opacity:0.966" fill="#bea051" d="M 1540.5,629.5 C 1562.41,661.917 1588.74,690.417 1619.5,715C 1628.83,721.666 1638.49,727.833 1648.5,733.5C 1661.7,754.252 1668.53,776.919 1669,801.5C 1654.73,786.944 1637.56,777.444 1617.5,773C 1600.84,764.009 1587.01,751.843 1576,736.5C 1555.69,703.74 1543.86,668.073 1540.5,629.5 Z"/></g>
<g><path style="opacity:0.962" fill="#bea051" d="M 527.5,705.5 C 518.808,706.003 510.142,706.836 501.5,708C 497.363,708.934 493.363,710.268 489.5,712C 483.309,715.441 481.976,720.274 485.5,726.5C 485.101,728.197 484.601,729.863 484,731.5C 481.989,738.356 477.822,740.189 471.5,737C 465.177,730.84 460.511,723.673 457.5,715.5C 484.584,696.595 509.417,674.928 532,650.5C 535.681,646.138 538.014,641.138 539,635.5C 541.74,659.802 537.907,683.136 527.5,705.5 Z"/></g>
<g><path style="opacity:0.977" fill="#bea051" d="M 286.5,692.5 C 293.392,719.642 304.225,745.308 319,769.5C 325.835,781.174 333.168,792.507 341,803.5C 349.773,821.467 353.607,840.467 352.5,860.5C 352.585,876.319 351.085,891.985 348,907.5C 347.692,908.308 347.192,908.975 346.5,909.5C 310.15,885.949 285.65,853.283 273,811.5C 264.106,770.316 268.606,730.649 286.5,692.5 Z"/></g>
<g><path style="opacity:0.974" fill="#bea051" d="M 1796.5,699.5 C 1802.16,706.494 1805.99,714.494 1808,723.5C 1814.76,762.154 1811.93,800.154 1799.5,837.5C 1776.18,859.813 1755.84,884.479 1738.5,911.5C 1736.19,906.459 1734.69,901.126 1734,895.5C 1729.83,870.201 1729.5,844.868 1733,819.5C 1750.62,798.21 1766.28,775.544 1780,751.5C 1789.63,735.449 1795.13,718.115 1796.5,699.5 Z"/></g>
<g><path style="opacity:1" fill="#fefefe" d="M 1150.5,770.5 C 1150.83,771.5 1151.5,772.167 1152.5,772.5C 1152.76,774.937 1153.42,777.271 1154.5,779.5C 1154.04,780.298 1153.38,780.631 1152.5,780.5C 1151.21,780.263 1150.21,780.596 1149.5,781.5C 1144.76,782.636 1140.09,783.97 1135.5,785.5C 1117.96,790.968 1100.29,795.968 1082.5,800.5C 1075.06,778.602 1059.73,769.102 1036.5,772C 1023.51,774.995 1013.51,782.162 1006.5,793.5C 999.286,808.966 995.953,825.299 996.5,842.5C 995.079,860.563 998.579,877.563 1007,893.5C 1017.58,907.698 1031.75,913.531 1049.5,911C 1055.05,910.203 1060.39,908.703 1065.5,906.5C 1072.69,902.307 1077.69,896.307 1080.5,888.5C 1083.39,882.586 1085.22,876.252 1086,869.5C 1107.41,876.803 1128.91,883.803 1150.5,890.5C 1150.84,891.338 1151.51,891.672 1152.5,891.5C 1154.68,892.117 1156.68,893.117 1158.5,894.5C 1156.5,900.846 1154.5,907.179 1152.5,913.5C 1144.77,927.571 1134.77,939.905 1122.5,950.5C 1096.04,969.702 1066.38,977.868 1033.5,975C 967.57,968.071 929.07,931.904 918,866.5C 912.166,824.889 920.999,786.889 944.5,752.5C 972.522,719.084 1008.52,704.251 1052.5,708C 1083.94,709.242 1110.77,720.742 1133,742.5C 1140.11,751.049 1145.94,760.382 1150.5,770.5 Z"/></g>
<g><path style="opacity:1" fill="#fefefe" d="M 801.5,904.5 C 813.658,897.979 819.824,887.645 820,873.5C 820.832,824.332 820.665,775.332 819.5,726.5C 819.195,721.238 819.529,716.072 820.5,711C 847.165,710.5 873.831,710.333 900.5,710.5C 900.968,769.525 900.468,828.525 899,887.5C 896.438,912.966 885.271,933.633 865.5,949.5C 845.455,962.348 823.455,969.514 799.5,971C 772.356,973.725 746.022,970.392 720.5,961C 685.928,945.401 667.428,918.568 665,880.5C 664.5,829.168 664.333,777.834 664.5,726.5C 664.5,721.167 664.5,715.833 664.5,710.5C 691.167,710.5 717.833,710.5 744.5,710.5C 744.333,765.834 744.5,821.168 745,876.5C 745.449,891.232 752.616,901.066 766.5,906C 778.411,909.687 790.077,909.187 801.5,904.5 Z"/></g>
<g><path style="opacity:1" fill="#fdfefd" d="M 1312.5,824.5 C 1316.74,832.742 1321.41,840.742 1326.5,848.5C 1326.78,849.289 1327.28,849.956 1328,850.5C 1328.83,810.331 1328.66,770.331 1327.5,730.5C 1327.2,725.238 1327.53,720.072 1328.5,715C 1354.51,714.313 1380.51,714.479 1406.5,715.5C 1406.5,799.833 1406.5,884.167 1406.5,968.5C 1401.5,968.5 1396.5,968.5 1391.5,968.5C 1370.16,968.833 1348.82,968.5 1327.5,967.5C 1300.53,924.034 1273.36,880.7 1246,837.5C 1245.5,850.829 1245.33,864.163 1245.5,877.5C 1245.5,907.833 1245.5,938.167 1245.5,968.5C 1240.5,968.5 1235.5,968.5 1230.5,968.5C 1230.17,968.5 1229.83,968.5 1229.5,968.5C 1208.83,968.5 1188.17,968.5 1167.5,968.5C 1167.83,888.998 1167.5,809.665 1166.5,730.5C 1166.2,725.238 1166.53,720.072 1167.5,715C 1192.5,714.333 1217.5,714.333 1242.5,715C 1265.7,751.674 1289.03,788.174 1312.5,824.5 Z"/></g>
<g><path style="opacity:1" fill="#355297" d="M 664.5,726.5 C 664.333,777.834 664.5,829.168 665,880.5C 667.428,918.568 685.928,945.401 720.5,961C 746.022,970.392 772.356,973.725 799.5,971C 823.455,969.514 845.455,962.348 865.5,949.5C 855.234,962.58 842.234,972.08 826.5,978C 789.045,989.908 751.379,990.574 713.5,980C 678.179,967.343 657.345,942.51 651,905.5C 649.54,845.854 649.04,786.188 649.5,726.5C 654.5,726.5 659.5,726.5 664.5,726.5 Z"/></g>
<g><path style="opacity:0.974" fill="#bea051" d="M 1559.5,726.5 C 1573.78,747.828 1590.12,767.661 1608.5,786C 1619.36,795.934 1631.69,803.6 1645.5,809C 1665.26,833.696 1678.76,861.529 1686,892.5C 1686.83,899.524 1686.66,906.524 1685.5,913.5C 1672.4,901.909 1658.07,892.076 1642.5,884C 1620.78,879.276 1603.61,867.776 1591,849.5C 1573.17,821.887 1563.17,791.553 1561,758.5C 1560.09,747.85 1559.59,737.184 1559.5,726.5 Z"/></g>
<g><path style="opacity:0.985" fill="#bea051" d="M 500.5,837.5 C 472.551,871.032 438.051,894.698 397,908.5C 396.281,872.988 407.281,841.655 430,814.5C 439.993,807.335 449.826,800.001 459.5,792.5C 483.199,772.635 504.699,750.635 524,726.5C 531.976,767.016 524.143,804.016 500.5,837.5 Z"/></g>
<g><path style="opacity:1" fill="#395599" d="M 819.5,726.5 C 820.665,775.332 820.832,824.332 820,873.5C 819.824,887.645 813.658,897.979 801.5,904.5C 802.983,899.955 804.15,895.288 805,890.5C 805.5,835.834 805.667,781.168 805.5,726.5C 810.167,726.5 814.833,726.5 819.5,726.5 Z"/></g>
<g><path style="opacity:1" fill="#398668" d="M 1152.5,730.5 C 1152.5,744.5 1152.5,758.5 1152.5,772.5C 1151.5,772.167 1150.83,771.5 1150.5,770.5C 1151.17,757.167 1151.83,743.833 1152.5,730.5 Z"/></g>
<g><path style="opacity:1" fill="#395499" d="M 1152.5,730.5 C 1157.17,730.5 1161.83,730.5 1166.5,730.5C 1167.5,809.665 1167.83,888.998 1167.5,968.5C 1188.17,968.5 1208.83,968.5 1229.5,968.5C 1229.5,973.5 1229.5,978.5 1229.5,983.5C 1203.83,983.5 1178.17,983.5 1152.5,983.5C 1152.5,960.167 1152.5,936.833 1152.5,913.5C 1154.5,907.179 1156.5,900.846 1158.5,894.5C 1156.68,893.117 1154.68,892.117 1152.5,891.5C 1152.5,854.5 1152.5,817.5 1152.5,780.5C 1153.38,780.631 1154.04,780.298 1154.5,779.5C 1153.42,777.271 1152.76,774.937 1152.5,772.5C 1152.5,758.5 1152.5,744.5 1152.5,730.5 Z"/></g>
<g><path style="opacity:1" fill="#345395" d="M 1327.5,730.5 C 1327.83,770.004 1327.5,809.337 1326.5,848.5C 1321.41,840.742 1316.74,832.742 1312.5,824.5C 1312.5,793.167 1312.5,761.833 1312.5,730.5C 1317.5,730.5 1322.5,730.5 1327.5,730.5 Z"/></g>
<g><path style="opacity:1" fill="#969ecb" d="M 1327.5,730.5 C 1328.66,770.331 1328.83,810.331 1328,850.5C 1327.28,849.956 1326.78,849.289 1326.5,848.5C 1327.5,809.337 1327.83,770.004 1327.5,730.5 Z"/></g>
<g><path style="opacity:0.936" fill="#bea051" d="M 423.5,752.5 C 426.056,753.543 428.223,755.21 430,757.5C 436.42,764.71 442.587,772.043 448.5,779.5C 433.624,783.352 420.79,790.685 410,801.5C 412.463,784.653 416.963,768.32 423.5,752.5 Z"/></g>
<g><path style="opacity:1" fill="#355397" d="M 944.5,752.5 C 920.999,786.889 912.166,824.889 918,866.5C 929.07,931.904 967.57,968.071 1033.5,975C 1066.38,977.868 1096.04,969.702 1122.5,950.5C 1103.51,973.832 1078.85,986.999 1048.5,990C 1015.23,994.206 984.231,987.873 955.5,971C 930.714,953.528 914.548,930.028 907,900.5C 895.488,854.563 902.154,811.563 927,771.5C 931.963,764.37 937.797,758.037 944.5,752.5 Z"/></g>
<g><path style="opacity:1" fill="#365398" d="M 1135.5,785.5 C 1136.83,788.471 1138.16,791.471 1139.5,794.5C 1115.84,802.831 1091.84,810.165 1067.5,816.5C 1063.58,800.752 1053.58,791.252 1037.5,788C 1026.41,786.084 1016.08,787.917 1006.5,793.5C 1013.51,782.162 1023.51,774.995 1036.5,772C 1059.73,769.102 1075.06,778.602 1082.5,800.5C 1100.29,795.968 1117.96,790.968 1135.5,785.5 Z"/></g>
<g><path style="opacity:1" fill="#3d934d" d="M 1149.5,781.5 C 1150.83,799.321 1151.5,817.488 1151.5,836C 1151.5,854.336 1151.17,872.503 1150.5,890.5C 1128.91,883.803 1107.41,876.803 1086,869.5C 1085.22,876.252 1083.39,882.586 1080.5,888.5C 1077.45,887.705 1074.45,886.705 1071.5,885.5C 1069.65,892.547 1067.65,899.547 1065.5,906.5C 1060.39,908.703 1055.05,910.203 1049.5,911C 1031.75,913.531 1017.58,907.698 1007,893.5C 998.579,877.563 995.079,860.563 996.5,842.5C 995.953,825.299 999.286,808.966 1006.5,793.5C 1016.08,787.917 1026.41,786.084 1037.5,788C 1053.58,791.252 1063.58,800.752 1067.5,816.5C 1091.84,810.165 1115.84,802.831 1139.5,794.5C 1138.16,791.471 1136.83,788.471 1135.5,785.5C 1140.09,783.97 1144.76,782.636 1149.5,781.5 Z"/></g>
<g><path style="opacity:1" fill="#3b8669" d="M 1149.5,781.5 C 1150.21,780.596 1151.21,780.263 1152.5,780.5C 1152.5,817.5 1152.5,854.5 1152.5,891.5C 1151.51,891.672 1150.84,891.338 1150.5,890.5C 1151.17,872.503 1151.5,854.336 1151.5,836C 1151.5,817.488 1150.83,799.321 1149.5,781.5 Z"/></g>
<g><path style="opacity:1" fill="#355297" d="M 1391.5,968.5 C 1391.5,973.833 1391.5,979.167 1391.5,984.5C 1365.5,984.667 1339.5,984.5 1313.5,984C 1290.93,948.351 1268.27,912.851 1245.5,877.5C 1245.33,864.163 1245.5,850.829 1246,837.5C 1273.36,880.7 1300.53,924.034 1327.5,967.5C 1348.82,968.5 1370.16,968.833 1391.5,968.5 Z"/></g>
<g><path style="opacity:0.976" fill="#bea051" d="M 505.5,850.5 C 509.899,857.162 513.066,864.495 515,872.5C 528.297,919.721 520.963,963.388 493,1003.5C 482.167,1012.33 471.333,1021.17 460.5,1030C 450.801,1038.19 442.801,1047.69 436.5,1058.5C 434.717,1054.7 433.55,1050.7 433,1046.5C 428.533,1016.64 430.866,987.304 440,958.5C 455.492,937.517 470.492,916.184 485,894.5C 490.921,884.327 496.587,873.994 502,863.5C 503.684,859.284 504.851,854.951 505.5,850.5 Z"/></g>
<g><path style="opacity:0.975" fill="#bea051" d="M 1577.5,852.5 C 1583.62,870.083 1591.45,887.083 1601,903.5C 1613.81,922.98 1628.14,941.313 1644,958.5C 1651.91,983.051 1653.91,1008.05 1650,1033.5C 1648.51,1041.3 1645.84,1048.64 1642,1055.5C 1623.43,1031.09 1602.26,1009.09 1578.5,989.5C 1560.56,943.933 1560.22,898.266 1577.5,852.5 Z"/></g>
<g><path style="opacity:0.976" fill="#bea051" d="M 250.5,853.5 C 254.379,860.238 258.545,866.904 263,873.5C 282.466,896.633 303.633,918.133 326.5,938C 334.853,940.916 341.353,946.082 346,953.5C 353.515,967.71 358.848,982.71 362,998.5C 365.636,1014.12 367.803,1029.78 368.5,1045.5C 343.885,1024.51 316.885,1007.01 287.5,993C 266.437,973.378 253.937,949.211 250,920.5C 246.692,898.142 246.858,875.809 250.5,853.5 Z"/></g>
<g><path style="opacity:0.976" fill="#bea051" d="M 1830.5,855.5 C 1844.67,930.003 1819,986.503 1753.5,1025C 1741.81,1031.85 1729.47,1037.02 1716.5,1040.5C 1715.5,1014.48 1719.17,989.146 1727.5,964.5C 1744.09,950.414 1759.92,935.414 1775,919.5C 1793.71,898.295 1812.21,876.961 1830.5,855.5 Z"/></g>
<g><path style="opacity:1" fill="#385698" d="M 1080.5,888.5 C 1077.69,896.307 1072.69,902.307 1065.5,906.5C 1067.65,899.547 1069.65,892.547 1071.5,885.5C 1074.45,886.705 1077.45,887.705 1080.5,888.5 Z"/></g>
<g><path style="opacity:0.975" fill="#bea051" d="M 539.5,923.5 C 544.18,927.702 548.014,932.702 551,938.5C 573.56,984.025 575.227,1030.36 556,1077.5C 542.85,1092.31 530.85,1107.98 520,1124.5C 516.21,1131.22 513.21,1138.22 511,1145.5C 500.198,1126.29 495.364,1105.62 496.5,1083.5C 496.246,1065.11 498.746,1047.11 504,1029.5C 520.743,1001.02 532.743,970.685 540,938.5C 540.726,933.448 540.559,928.448 539.5,923.5 Z"/></g>
<g><path style="opacity:0.976" fill="#bea051" d="M 1543.5,924.5 C 1546.84,964.249 1559.68,1000.92 1582,1034.5C 1589.08,1064.89 1587.75,1094.89 1578,1124.5C 1576.65,1127.87 1574.82,1130.87 1572.5,1133.5C 1549.34,1112.84 1531.84,1088.18 1520,1059.5C 1504.85,1010.41 1512.69,965.415 1543.5,924.5 Z"/></g>
<g><path style="opacity:0.983" fill="#bea051" d="M 1423.5,1218.5 C 1416.57,1191.04 1415.74,1163.37 1421,1135.5C 1422.18,1127.12 1425.01,1119.45 1429.5,1112.5C 1443.25,1093.31 1452.42,1071.98 1457,1048.5C 1462.15,1023.43 1464.31,998.093 1463.5,972.5C 1470.32,972.996 1475.82,975.996 1480,981.5C 1496.68,1008.38 1504.51,1037.71 1503.5,1069.5C 1502.56,1136.01 1479.06,1193.01 1433,1240.5C 1429.01,1233.52 1425.84,1226.19 1423.5,1218.5 Z"/></g>
<g><path style="opacity:0.98" fill="#bea051" d="M 614.5,976.5 C 614.259,995.745 617.093,1014.75 623,1033.5C 633.597,1067.29 646.93,1099.96 663,1131.5C 665.986,1150.09 666.319,1168.75 664,1187.5C 661.756,1205.29 658.756,1222.96 655,1240.5C 654.685,1243.64 653.518,1246.3 651.5,1248.5C 644.448,1239.6 637.948,1230.27 632,1220.5C 619.748,1200.33 607.748,1180 596,1159.5C 568.348,1106.27 568.682,1053.27 597,1000.5C 602.278,992.061 608.111,984.061 614.5,976.5 Z"/></g>
<g><path style="opacity:1" fill="#32658e" d="M 1229.5,968.5 C 1229.83,968.5 1230.17,968.5 1230.5,968.5C 1230.5,973.833 1230.5,979.167 1230.5,984.5C 1204.33,984.831 1178.33,984.498 1152.5,983.5C 1178.17,983.5 1203.83,983.5 1229.5,983.5C 1229.5,978.5 1229.5,973.5 1229.5,968.5 Z"/></g>
<g><path style="opacity:0.977" fill="#bea051" d="M 239.5,1005.5 C 260.385,1021.32 283.385,1034.82 308.5,1046C 352.313,1056.5 385.147,1081.33 407,1120.5C 410.918,1127.83 414.418,1135.33 417.5,1143C 384.076,1134.43 350.076,1128.43 315.5,1125C 294.494,1114.99 278.328,1099.83 267,1079.5C 254.339,1056 245.172,1031.34 239.5,1005.5 Z"/></g>
<g><path style="opacity:0.977" fill="#bea051" d="M 1839.5,1007.5 C 1840.26,1036.05 1831.42,1061.72 1813,1084.5C 1790.82,1109.02 1763.65,1125.52 1731.5,1134C 1710.44,1140.32 1689.11,1143.48 1667.5,1143.5C 1670.62,1129.27 1676.45,1116.27 1685,1104.5C 1695.72,1090.11 1707.55,1076.61 1720.5,1064C 1739.07,1061.14 1756.74,1055.48 1773.5,1047C 1796.72,1035.57 1818.72,1022.4 1839.5,1007.5 Z"/></g>
<g><path style="opacity:0.989" fill="#bea051" d="M 787.5,1201.5 C 791.287,1234.14 791.454,1266.81 788,1299.5C 760.181,1271.02 733.848,1241.36 709,1210.5C 691.165,1182.82 683.832,1152.49 687,1119.5C 687.507,1112.12 688.34,1104.79 689.5,1097.5C 692.957,1082.77 697.124,1068.1 702,1053.5C 704.566,1045.8 707.899,1038.46 712,1031.5C 712.231,1038.94 713.231,1046.28 715,1053.5C 730.851,1097.54 752.185,1138.54 779,1176.5C 782.619,1184.68 785.453,1193.01 787.5,1201.5 Z"/></g>
<g><path style="opacity:0.976" fill="#bea051" d="M 1807.5,1134.5 C 1808.69,1134.97 1809.36,1135.97 1809.5,1137.5C 1804.95,1160.44 1794.28,1179.94 1777.5,1196C 1762.39,1210.06 1745.39,1221.4 1726.5,1230C 1674.15,1228.98 1622.65,1235.15 1572,1248.5C 1587.52,1224.97 1606.69,1204.47 1629.5,1187C 1636.67,1181.41 1644.67,1177.41 1653.5,1175C 1708.61,1175.22 1759.94,1161.72 1807.5,1134.5 Z"/></g>
<g><path style="opacity:0.973" fill="#bea051" d="M 272.5,1137.5 C 277.963,1142.07 283.963,1145.9 290.5,1149C 313.787,1157.79 337.787,1163.79 362.5,1167C 377.816,1169.15 393.149,1171.15 408.5,1173C 434.969,1179.57 458.302,1191.9 478.5,1210C 490.81,1221.8 501.81,1234.64 511.5,1248.5C 493.578,1242.28 474.912,1238.11 455.5,1236C 428.571,1233.29 401.571,1231.95 374.5,1232C 328.46,1216.62 294.96,1187.12 274,1143.5C 273.187,1141.56 272.687,1139.56 272.5,1137.5 Z"/></g>
<g><path style="opacity:0.972" fill="#bea051" d="M 1690.5,1249.5 C 1691.91,1257.22 1690.41,1264.56 1686,1271.5C 1676.64,1284.1 1665.14,1294.26 1651.5,1302C 1630.75,1313.7 1608.91,1322.86 1586,1329.5C 1565.53,1324.19 1544.69,1321.35 1523.5,1321C 1497.17,1320.67 1470.83,1320.33 1444.5,1320C 1460.75,1304.1 1479.41,1291.77 1500.5,1283C 1509.39,1279.39 1518.39,1276.06 1527.5,1273C 1548.82,1273.54 1570.15,1273.54 1591.5,1273C 1617.36,1271.69 1642.69,1267.36 1667.5,1260C 1675.65,1257.35 1683.31,1253.85 1690.5,1249.5 Z"/></g>
<g><path style="opacity:0.975" fill="#bea051" d="M 390.5,1254.5 C 411.296,1262.86 432.962,1267.36 455.5,1268C 481.186,1268.14 506.853,1268.8 532.5,1270C 568.769,1273.08 601.103,1285.75 629.5,1308C 635.054,1313.05 640.054,1318.55 644.5,1324.5C 644.167,1324.83 643.833,1325.17 643.5,1325.5C 639.939,1324.24 636.272,1323.41 632.5,1323C 589.676,1321.59 547.009,1323.76 504.5,1329.5C 476.433,1326.65 451.433,1316.48 429.5,1299C 413.718,1286.4 400.718,1271.57 390.5,1254.5 Z"/></g>
<g><path style="opacity:0.922" fill="#bea051" d="M 925.5,1296.5 C 929.013,1310.05 931.346,1323.72 932.5,1337.5C 921.937,1326.61 912.937,1314.61 905.5,1301.5C 911.193,1295.8 917.86,1294.14 925.5,1296.5 Z"/></g>
<g><path style="opacity:0.976" fill="#bea051" d="M 666.5,1342.5 C 694.942,1340.27 722.609,1343.77 749.5,1353C 761.615,1357.71 771.948,1364.88 780.5,1374.5C 780.167,1374.83 779.833,1375.17 779.5,1375.5C 776.961,1374.88 774.461,1374.22 772,1373.5C 744.857,1377.58 718.357,1384.41 692.5,1394C 679.833,1398.67 667.167,1403.33 654.5,1408C 615.377,1414.26 578.71,1407.59 544.5,1388C 534.041,1380.71 524.708,1372.21 516.5,1362.5C 517,1362.17 517.5,1361.83 518,1361.5C 527.387,1364.79 537.054,1366.12 547,1365.5C 567.582,1365.05 587.748,1361.88 607.5,1356C 618.167,1352.67 628.833,1349.33 639.5,1346C 648.652,1344.86 657.652,1343.69 666.5,1342.5 Z"/></g>
<g><path style="opacity:0.975" fill="#bea051" d="M 1412.5,1344.5 C 1440.7,1352.57 1469.36,1358.41 1498.5,1362C 1520.2,1363.93 1541.86,1363.93 1563.5,1362C 1549.94,1383.62 1530.94,1398.29 1506.5,1406C 1490.18,1410.79 1473.51,1413.29 1456.5,1413.5C 1458.81,1409.66 1460.98,1405.66 1463,1401.5C 1463.67,1400.17 1463.67,1398.83 1463,1397.5C 1449.22,1389.76 1436.88,1380.1 1426,1368.5C 1419.68,1361.54 1415.18,1353.54 1412.5,1344.5 Z"/></g>
<g><path style="opacity:0.98" fill="#bea051" d="M 1289.5,1405.5 C 1290.1,1411.52 1290.93,1417.52 1292,1423.5C 1293.13,1429.92 1295.97,1435.42 1300.5,1440C 1305.77,1441.11 1311.1,1441.77 1316.5,1442C 1340.59,1442.94 1364.59,1442.44 1388.5,1440.5C 1403.57,1443.31 1418.91,1445.14 1434.5,1446C 1414.94,1470.62 1389.28,1483.95 1357.5,1486C 1328.27,1487.62 1299.93,1483.29 1272.5,1473C 1250.87,1456.18 1228.2,1440.85 1204.5,1427C 1190.34,1418.84 1175.34,1412.84 1159.5,1409C 1155.5,1408.67 1151.5,1408.33 1147.5,1408C 1186.76,1377.68 1228.76,1373.35 1273.5,1395C 1278.99,1398.33 1284.32,1401.83 1289.5,1405.5 Z"/></g>
<g><path style="opacity:0.98" fill="#bea051" d="M 854.5,1385.5 C 879.618,1382.73 903.284,1387.23 925.5,1399C 930.16,1402.66 934.493,1406.66 938.5,1411C 929.277,1411.48 920.277,1413.15 911.5,1416C 886.962,1425.1 863.295,1436.1 840.5,1449C 821.304,1459.76 802.304,1470.76 783.5,1482C 765.833,1482.67 748.167,1482.67 730.5,1482C 712.584,1481.02 695.251,1477.35 678.5,1471C 668.553,1466.7 660.053,1460.54 653,1452.5C 650.713,1449.93 649.547,1446.93 649.5,1443.5C 667.127,1444.78 684.46,1442.95 701.5,1438C 735.838,1428 768.838,1414.66 800.5,1398C 818.234,1392.09 836.234,1387.92 854.5,1385.5 Z"/></g>
<g><path style="opacity:0.995" fill="#335197" d="M 1882.5,1574.5 C 1791.5,1552.58 1699.17,1538.41 1605.5,1532C 1568.77,1530.77 1532.1,1531.61 1495.5,1534.5C 1496.93,1542.71 1498.59,1550.88 1500.5,1559C 1499.96,1561.88 1498.29,1563.88 1495.5,1565C 1482.96,1571.96 1469.96,1577.96 1456.5,1583C 1392.04,1603.96 1326.04,1617.63 1258.5,1624C 1101.43,1639.88 944.433,1639.22 787.5,1622C 726.517,1615.34 666.85,1602.67 608.5,1584C 599.269,1580.72 590.269,1576.88 581.5,1572.5C 581.167,1571.33 580.833,1570.17 580.5,1569C 582.219,1560.91 583.219,1552.74 583.5,1544.5C 530.476,1538.94 477.476,1539.44 424.5,1546C 348.905,1554.89 274.238,1568.06 200.5,1585.5C 198.131,1585.85 195.797,1586.02 193.5,1586C 195.301,1583.56 196.968,1581.06 198.5,1578.5C 201.916,1574.68 204.582,1570.34 206.5,1565.5C 216.019,1550.98 225.686,1536.48 235.5,1522C 222.12,1510.95 208.453,1500.28 194.5,1490C 193.167,1489.33 193.167,1488.67 194.5,1488C 328.144,1446.21 464.811,1429.88 604.5,1439C 606.157,1448.15 607.157,1457.48 607.5,1467C 653.718,1487.56 701.718,1502.56 751.5,1512C 885.553,1536.77 1020.55,1543.77 1156.5,1533C 1228.94,1528.04 1300.28,1516.37 1370.5,1498C 1406.53,1488.48 1440.86,1474.81 1473.5,1457C 1475.09,1455.95 1476.59,1454.79 1478,1453.5C 1478.5,1444.84 1478.67,1436.17 1478.5,1427.5C 1536.57,1421.78 1594.57,1422.62 1652.5,1430C 1732.93,1439.59 1811.93,1455.75 1889.5,1478.5C 1874.67,1491.82 1859.67,1504.99 1844.5,1518C 1859.21,1536.59 1874.05,1555.09 1889,1573.5C 1889.43,1574.6 1888.93,1575.27 1887.5,1575.5C 1885.87,1574.95 1884.2,1574.62 1882.5,1574.5 Z"/></g>
<g><path style="opacity:0.999" fill="#fefefe" d="M 1882.5,1574.5 C 1882.36,1587.13 1882.19,1599.8 1882,1612.5C 1880,1625.31 1878.17,1638.14 1876.5,1651C 1876.95,1656.12 1877.95,1661.12 1879.5,1666C 1879.36,1666.77 1879.02,1667.44 1878.5,1668C 1876.39,1668.84 1874.39,1669.68 1872.5,1670.5C 1802.35,1654.31 1731.35,1643.47 1659.5,1638C 1618.22,1634.77 1576.89,1632.6 1535.5,1631.5C 1523.68,1630.5 1511.68,1630.17 1499.5,1630.5C 1499.5,1640.83 1499.5,1651.17 1499.5,1661.5C 1483.79,1673.03 1466.79,1682.53 1448.5,1690C 1393.51,1710.73 1336.84,1725.06 1278.5,1733C 1118.27,1755.6 957.934,1756.26 797.5,1735C 762.131,1729.89 727.131,1723.06 692.5,1714.5C 692.5,1713.83 692.167,1713.5 691.5,1713.5C 690.833,1713.5 690.167,1713.5 689.5,1713.5C 689.158,1712.66 688.492,1712.33 687.5,1712.5C 687.167,1712.5 686.833,1712.5 686.5,1712.5C 685.791,1711.6 684.791,1711.26 683.5,1711.5C 657.455,1702.99 632.122,1692.49 607.5,1680C 598.499,1675.17 589.832,1669.83 581.5,1664C 580.911,1660.3 579.911,1656.8 578.5,1653.5C 578.5,1649.83 578.5,1646.17 578.5,1642.5C 578.5,1639.5 578.5,1636.5 578.5,1633.5C 568.319,1633.17 558.319,1633.51 548.5,1634.5C 461.151,1638.8 374.484,1648.97 288.5,1665C 258.568,1671.14 228.568,1676.98 198.5,1682.5C 208.417,1650.39 209.084,1618.06 200.5,1585.5C 274.238,1568.06 348.905,1554.89 424.5,1546C 477.476,1539.44 530.476,1538.94 583.5,1544.5C 583.219,1552.74 582.219,1560.91 580.5,1569C 580.833,1570.17 581.167,1571.33 581.5,1572.5C 590.269,1576.88 599.269,1580.72 608.5,1584C 666.85,1602.67 726.517,1615.34 787.5,1622C 944.433,1639.22 1101.43,1639.88 1258.5,1624C 1326.04,1617.63 1392.04,1603.96 1456.5,1583C 1469.96,1577.96 1482.96,1571.96 1495.5,1565C 1498.29,1563.88 1499.96,1561.88 1500.5,1559C 1498.59,1550.88 1496.93,1542.71 1495.5,1534.5C 1532.1,1531.61 1568.77,1530.77 1605.5,1532C 1699.17,1538.41 1791.5,1552.58 1882.5,1574.5 Z"/></g>
<g><path style="opacity:0.84" fill="#f9fafc" d="M 206.5,1565.5 C 204.582,1570.34 201.916,1574.68 198.5,1578.5C 197.327,1575.85 196.494,1573.18 196,1570.5C 199.572,1568.96 203.072,1567.3 206.5,1565.5 Z"/></g>
<g><path style="opacity:1" fill="#7985bb" d="M 1535.5,1631.5 C 1523.83,1631.5 1512.17,1631.5 1500.5,1631.5C 1500.83,1641.68 1500.49,1651.68 1499.5,1661.5C 1499.5,1651.17 1499.5,1640.83 1499.5,1630.5C 1511.68,1630.17 1523.68,1630.5 1535.5,1631.5 Z"/></g>
<g><path style="opacity:0.995" fill="#335197" d="M 1535.5,1631.5 C 1576.89,1632.6 1618.22,1634.77 1659.5,1638C 1731.35,1643.47 1802.35,1654.31 1872.5,1670.5C 1877.38,1671.6 1882.21,1672.93 1887,1674.5C 1888.26,1674.85 1888.59,1675.52 1888,1676.5C 1874.82,1690.35 1861.65,1704.18 1848.5,1718C 1861.57,1742.15 1874.91,1766.15 1888.5,1790C 1833.15,1770.25 1776.15,1756.91 1717.5,1750C 1650.11,1741.23 1582.44,1737.23 1514.5,1738C 1517.71,1748.99 1519.87,1760.15 1521,1771.5C 1509.74,1783.08 1496.58,1791.91 1481.5,1798C 1435.6,1815.64 1388.26,1827.98 1339.5,1835C 1260.29,1847.13 1180.62,1854.13 1100.5,1856C 986.07,1859.6 872.07,1854.27 758.5,1840C 702.22,1833.28 647.22,1820.94 593.5,1803C 577.166,1797.34 562.166,1789.34 548.5,1779C 550.862,1767.64 552.528,1756.14 553.5,1744.5C 472.441,1747.25 391.774,1754.42 311.5,1766C 271.612,1771.67 232.946,1781.17 195.5,1794.5C 207.965,1774.4 220.299,1754.23 232.5,1734C 219.37,1717.37 206.037,1700.87 192.5,1684.5C 194.411,1683.52 196.411,1682.86 198.5,1682.5C 228.568,1676.98 258.568,1671.14 288.5,1665C 374.484,1648.97 461.151,1638.8 548.5,1634.5C 558.167,1634.5 567.833,1634.5 577.5,1634.5C 577.194,1637.39 577.527,1640.05 578.5,1642.5C 578.5,1646.17 578.5,1649.83 578.5,1653.5C 579.025,1659.82 579.525,1666.16 580,1672.5C 612.644,1690.33 647.144,1703.33 683.5,1711.5C 684.209,1712.4 685.209,1712.74 686.5,1712.5C 686.833,1712.5 687.167,1712.5 687.5,1712.5C 687.842,1713.34 688.508,1713.67 689.5,1713.5C 690.167,1713.5 690.833,1713.5 691.5,1713.5C 692.167,1713.5 692.5,1713.83 692.5,1714.5C 727.131,1723.06 762.131,1729.89 797.5,1735C 957.934,1756.26 1118.27,1755.6 1278.5,1733C 1336.84,1725.06 1393.51,1710.73 1448.5,1690C 1466.79,1682.53 1483.79,1673.03 1499.5,1661.5C 1500.49,1651.68 1500.83,1641.68 1500.5,1631.5C 1512.17,1631.5 1523.83,1631.5 1535.5,1631.5 Z M 578.5,1653.5 C 579.911,1656.8 580.911,1660.3 581.5,1664C 589.832,1669.83 598.499,1675.17 607.5,1680C 632.122,1692.49 657.455,1702.99 683.5,1711.5C 647.144,1703.33 612.644,1690.33 580,1672.5C 579.525,1666.16 579.025,1659.82 578.5,1653.5 Z"/></g>
<g><path style="opacity:1" fill="#a4a9d1" d="M 548.5,1634.5 C 558.319,1633.51 568.319,1633.17 578.5,1633.5C 578.5,1636.5 578.5,1639.5 578.5,1642.5C 577.527,1640.05 577.194,1637.39 577.5,1634.5C 567.833,1634.5 558.167,1634.5 548.5,1634.5 Z"/></g>
<g><path style="opacity:1" fill="#4a60a2" d="M 1044.5,1646.5 C 1043.6,1647.16 1042.6,1647.82 1041.5,1648.5C 1042.32,1649.39 1043.32,1649.72 1044.5,1649.5C 1043.74,1650.27 1042.74,1650.77 1041.5,1651C 1042.62,1651.25 1043.62,1651.75 1044.5,1652.5C 1042.95,1653.45 1041.29,1653.79 1039.5,1653.5C 1039.5,1651.17 1039.5,1648.83 1039.5,1646.5C 1041.17,1646.5 1042.83,1646.5 1044.5,1646.5 Z"/></g>
<g><path style="opacity:1" fill="#4d62a3" d="M 1031.5,1646.5 C 1037.16,1645.68 1038.82,1647.85 1036.5,1653C 1034.87,1653.49 1033.2,1653.66 1031.5,1653.5C 1031.5,1651.17 1031.5,1648.83 1031.5,1646.5 Z"/></g>
<g><path style="opacity:1" fill="#a2a8d0" d="M 1044.5,1646.5 C 1045.62,1647.35 1045.62,1648.35 1044.5,1649.5C 1043.32,1649.72 1042.32,1649.39 1041.5,1648.5C 1042.6,1647.82 1043.6,1647.16 1044.5,1646.5 Z"/></g>
<g><path style="opacity:1" fill="#e8e9f3" d="M 1033.5,1648.5 C 1034.5,1648.5 1035.5,1648.5 1036.5,1648.5C 1036.5,1649.5 1036.5,1650.5 1036.5,1651.5C 1035.5,1651.5 1034.5,1651.5 1033.5,1651.5C 1033.5,1650.5 1033.5,1649.5 1033.5,1648.5 Z"/></g>
<g><path style="opacity:1" fill="#5266a6" d="M 1050.5,1647.5 C 1051.71,1648.23 1052.71,1649.23 1053.5,1650.5C 1054.09,1650.29 1054.59,1649.96 1055,1649.5C 1055.76,1651.81 1055.26,1653.81 1053.5,1655.5C 1052.42,1654.33 1051.58,1653 1051,1651.5C 1050.75,1652.62 1050.25,1653.62 1049.5,1654.5C 1048.37,1652.01 1048.7,1649.68 1050.5,1647.5 Z"/></g>
<g><path style="opacity:1" fill="#475ea0" d="M 1022.5,1649.5 C 1023.55,1649.35 1024.55,1649.52 1025.5,1650C 1026.26,1651.51 1027.26,1652.85 1028.5,1654C 1026.27,1654.12 1024.44,1654.95 1023,1656.5C 1022.5,1654.19 1022.34,1651.86 1022.5,1649.5 Z"/></g>
<g><path style="opacity:1" fill="#495fa1" d="M 1057.5,1650.5 C 1058.38,1650.37 1059.04,1650.7 1059.5,1651.5C 1055.7,1658.03 1055.03,1657.7 1057.5,1650.5 Z"/></g>
<g><path style="opacity:1" fill="#5266a6" d="M 1060.5,1652.5 C 1064,1652.5 1065.5,1654.16 1065,1657.5C 1062.58,1653.46 1061.08,1653.79 1060.5,1658.5C 1061.55,1658.35 1062.55,1658.52 1063.5,1659C 1058.15,1659.18 1057.15,1657.01 1060.5,1652.5 Z"/></g>
<g><path style="opacity:1" fill="#586aa8" d="M 1042.5,1660.5 C 1041.88,1660.39 1041.38,1660.06 1041,1659.5C 1040.67,1663.5 1040.33,1667.5 1040,1671.5C 1039.82,1667.31 1039.32,1663.31 1038.5,1659.5C 1039.97,1654.52 1041.3,1654.85 1042.5,1660.5 Z"/></g>
<g><path style="opacity:1" fill="#6171ad" d="M 1013.5,1661.5 C 1012.52,1660.19 1011.52,1658.85 1010.5,1657.5C 1011.87,1656.41 1013.03,1656.74 1014,1658.5C 1013.39,1653.92 1015.22,1652.08 1019.5,1653C 1015.49,1653.49 1014.82,1654.99 1017.5,1657.5C 1018.48,1657.02 1019.31,1656.36 1020,1655.5C 1020.67,1656.5 1020.67,1657.5 1020,1658.5C 1017.74,1659.38 1015.57,1660.38 1013.5,1661.5 Z"/></g>
<g><path style="opacity:1" fill="#5064a4" d="M 1066.5,1658.5 C 1067.83,1658.5 1069.17,1658.5 1070.5,1658.5C 1070.36,1661.1 1069.52,1663.43 1068,1665.5C 1067.52,1664.55 1067.35,1663.55 1067.5,1662.5C 1066.02,1662.76 1064.69,1662.43 1063.5,1661.5C 1064.77,1660.71 1065.77,1659.71 1066.5,1658.5 Z"/></g>
<g><path style="opacity:1" fill="#4c62a3" d="M 1013.5,1661.5 C 1012.79,1664.59 1011.12,1665.92 1008.5,1665.5C 1004.46,1660.21 1005.13,1659.54 1010.5,1663.5C 1011.52,1662.81 1012.52,1662.14 1013.5,1661.5 Z"/></g>
<g><path style="opacity:1" fill="#4f63a4" d="M 1038.5,1659.5 C 1038.5,1662.83 1038.5,1666.17 1038.5,1669.5C 1037.59,1667.34 1036.93,1665.01 1036.5,1662.5C 1036.43,1660.97 1037.09,1659.97 1038.5,1659.5 Z"/></g>
<g><path style="opacity:1" fill="#5064a4" d="M 1074.5,1669.5 C 1073.61,1670.11 1072.61,1670.44 1071.5,1670.5C 1071.92,1669.74 1072.26,1668.9 1072.5,1668C 1071.62,1666.9 1070.62,1666.4 1069.5,1666.5C 1072.13,1661.31 1074.47,1661.31 1076.5,1666.5C 1076.06,1667.74 1075.39,1668.74 1074.5,1669.5 Z"/></g>
<g><path style="opacity:1" fill="#586aa8" d="M 1008.5,1665.5 C 1007.56,1672.63 1004.9,1673.3 1000.5,1667.5C 1001.5,1665.83 1002.83,1664.5 1004.5,1663.5C 1005.52,1664.85 1006.86,1665.52 1008.5,1665.5 Z"/></g>
<g><path style="opacity:1" fill="#6a78b2" d="M 1035.5,1664.5 C 1036.32,1666.45 1036.49,1668.45 1036,1670.5C 1035.33,1667.83 1034.67,1667.83 1034,1670.5C 1033.62,1669.94 1033.12,1669.61 1032.5,1669.5C 1032.75,1667.33 1033.75,1665.66 1035.5,1664.5 Z"/></g>
<g><path style="opacity:1" fill="#dddeee" d="M 1038.5,1659.5 C 1039.32,1663.31 1039.82,1667.31 1040,1671.5C 1040.33,1667.5 1040.67,1663.5 1041,1659.5C 1041.38,1660.06 1041.88,1660.39 1042.5,1660.5C 1041.63,1664.77 1041.29,1669.1 1041.5,1673.5C 1039.52,1673.84 1038.18,1673.18 1037.5,1671.5C 1038.34,1671.16 1038.67,1670.49 1038.5,1669.5C 1038.5,1666.17 1038.5,1662.83 1038.5,1659.5 Z"/></g>
<g><path style="opacity:1" fill="#afb4d7" d="M 1036.5,1662.5 C 1036.93,1665.01 1037.59,1667.34 1038.5,1669.5C 1038.67,1670.49 1038.34,1671.16 1037.5,1671.5C 1036.05,1672.81 1035.39,1674.14 1035.5,1675.5C 1034.39,1673.58 1033.05,1671.91 1031.5,1670.5C 1031.5,1669.83 1031.83,1669.5 1032.5,1669.5C 1033.12,1669.61 1033.62,1669.94 1034,1670.5C 1034.67,1667.83 1035.33,1667.83 1036,1670.5C 1036.49,1668.45 1036.32,1666.45 1035.5,1664.5C 1035.33,1663.51 1035.66,1662.84 1036.5,1662.5 Z"/></g>
<g><path style="opacity:1" fill="#aeb2d6" d="M 1074.5,1669.5 C 1076.5,1670.17 1078.5,1670.83 1080.5,1671.5C 1077.94,1671.2 1075.61,1671.53 1073.5,1672.5C 1072.5,1672.17 1071.83,1671.5 1071.5,1670.5C 1072.61,1670.44 1073.61,1670.11 1074.5,1669.5 Z"/></g>
<g><path style="opacity:1" fill="#495fa1" d="M 1080.5,1671.5 C 1079.5,1673.5 1078.5,1675.5 1077.5,1677.5C 1075.95,1676.09 1074.61,1674.42 1073.5,1672.5C 1075.61,1671.53 1077.94,1671.2 1080.5,1671.5 Z"/></g>
<g><path style="opacity:1" fill="#4b60a2" d="M 998.5,1671.5 C 1000.09,1670.38 1001.76,1670.55 1003.5,1672C 1004.86,1677.54 1002.86,1678.88 997.5,1676C 996.112,1675.11 996.278,1674.61 998,1674.5C 1003.75,1675.27 1003.92,1674.27 998.5,1671.5 Z"/></g>
<g><path style="opacity:1" fill="#7884ba" d="M 1042.5,1660.5 C 1043.27,1661.17 1043.93,1662.01 1044.5,1663C 1042.68,1666.38 1042.35,1669.88 1043.5,1673.5C 1043.73,1670.78 1044.23,1667.78 1045,1664.5C 1050.35,1672.53 1055.18,1680.87 1059.5,1689.5C 1058.5,1689.47 1057.84,1689.97 1057.5,1691C 1058.66,1693.84 1059.99,1696.5 1061.5,1699C 1060.43,1700.16 1060.77,1700.99 1062.5,1701.5C 1062.5,1701.83 1062.5,1702.17 1062.5,1702.5C 1055.67,1703.33 1049.01,1704.33 1042.5,1705.5C 1037.7,1704.76 1032.86,1705.1 1028,1706.5C 1023.68,1705.3 1019.51,1705.3 1015.5,1706.5C 1014.44,1707.21 1014.78,1707.54 1016.5,1707.5C 1016.5,1707.83 1016.5,1708.17 1016.5,1708.5C 1015.61,1709.11 1014.61,1709.44 1013.5,1709.5C 1011.45,1708.29 1011.45,1706.62 1013.5,1704.5C 1013.38,1703.89 1013.04,1703.56 1012.5,1703.5C 1012.5,1702.83 1012.83,1702.5 1013.5,1702.5C 1014.79,1702.26 1015.79,1702.6 1016.5,1703.5C 1016.92,1704.12 1017.58,1704.46 1018.5,1704.5C 1026.5,1703.71 1034.5,1702.88 1042.5,1702C 1041.94,1701.62 1041.61,1701.12 1041.5,1700.5C 1043.03,1701.35 1044.7,1702.01 1046.5,1702.5C 1048.03,1702.36 1049.03,1701.69 1049.5,1700.5C 1048.03,1699.56 1047.03,1698.23 1046.5,1696.5C 1047.34,1696.16 1047.67,1695.49 1047.5,1694.5C 1050.44,1697.13 1051.11,1696.46 1049.5,1692.5C 1053.19,1693.86 1055.52,1696.53 1056.5,1700.5C 1057.5,1701.83 1058.5,1701.83 1059.5,1700.5C 1057.4,1698.37 1056.57,1696.03 1057,1693.5C 1056.25,1692.87 1055.42,1692.37 1054.5,1692C 1056.69,1691.32 1057.02,1690.16 1055.5,1688.5C 1053.95,1687.55 1052.29,1687.21 1050.5,1687.5C 1050.5,1686.83 1050.83,1686.5 1051.5,1686.5C 1052.68,1686.72 1053.68,1686.39 1054.5,1685.5C 1052.26,1684.53 1049.92,1684.19 1047.5,1684.5C 1047.5,1684.17 1047.5,1683.83 1047.5,1683.5C 1049.29,1683.79 1050.95,1683.45 1052.5,1682.5C 1051.68,1681.61 1050.68,1681.28 1049.5,1681.5C 1050.6,1679.91 1049.93,1679.07 1047.5,1679C 1048.34,1677.33 1047.84,1677.17 1046,1678.5C 1044.53,1676.09 1042.37,1675.09 1039.5,1675.5C 1039.34,1677.2 1039.51,1678.87 1040,1680.5C 1040.33,1679.5 1040.67,1678.5 1041,1677.5C 1041.99,1680.56 1043.82,1681.73 1046.5,1681C 1046.07,1681.92 1045.74,1682.75 1045.5,1683.5C 1044.58,1682.87 1043.58,1682.54 1042.5,1682.5C 1042.17,1682.5 1041.83,1682.5 1041.5,1682.5C 1040.74,1681.73 1039.74,1681.23 1038.5,1681C 1037.62,1679.41 1036.62,1677.91 1035.5,1676.5C 1032.16,1677.11 1031.83,1678.28 1034.5,1680C 1032.87,1679.8 1031.21,1679.8 1029.5,1680C 1030.42,1680.28 1031.08,1680.78 1031.5,1681.5C 1029.02,1681.32 1027.19,1682.32 1026,1684.5C 1025.54,1685.74 1026.04,1686.58 1027.5,1687C 1024.47,1687.6 1023.47,1689.1 1024.5,1691.5C 1021.8,1695.75 1021.13,1695.41 1022.5,1690.5C 1022.03,1689.54 1021.36,1689.54 1020.5,1690.5C 1024.14,1683.85 1027.81,1677.18 1031.5,1670.5C 1033.05,1671.91 1034.39,1673.58 1035.5,1675.5C 1035.39,1674.14 1036.05,1672.81 1037.5,1671.5C 1038.18,1673.18 1039.52,1673.84 1041.5,1673.5C 1041.29,1669.1 1041.63,1664.77 1042.5,1660.5 Z"/></g>
<g><path style="opacity:1" fill="#596ba9" d="M 1077.5,1677.5 C 1082.63,1676.31 1084.3,1678.31 1082.5,1683.5C 1077.15,1684.83 1075.48,1682.83 1077.5,1677.5 Z"/></g>
<g><path style="opacity:1" fill="#b9bddc" d="M 1049.5,1681.5 C 1048.83,1682.17 1048.17,1682.83 1047.5,1683.5C 1047.5,1683.83 1047.5,1684.17 1047.5,1684.5C 1048.83,1685.17 1050.17,1685.83 1051.5,1686.5C 1050.83,1686.5 1050.5,1686.83 1050.5,1687.5C 1048.67,1686.51 1047,1686.51 1045.5,1687.5C 1044.69,1685.78 1043.69,1684.11 1042.5,1682.5C 1043.58,1682.54 1044.58,1682.87 1045.5,1683.5C 1045.74,1682.75 1046.07,1681.92 1046.5,1681C 1043.82,1681.73 1041.99,1680.56 1041,1677.5C 1040.67,1678.5 1040.33,1679.5 1040,1680.5C 1039.51,1678.87 1039.34,1677.2 1039.5,1675.5C 1042.37,1675.09 1044.53,1676.09 1046,1678.5C 1047.84,1677.17 1048.34,1677.33 1047.5,1679C 1049.93,1679.07 1050.6,1679.91 1049.5,1681.5 Z"/></g>
<g><path style="opacity:1" fill="#6070ac" d="M 996.5,1677.5 C 997.496,1677.41 998.329,1677.75 999,1678.5C 999.304,1680.44 1000.14,1682.11 1001.5,1683.5C 999.229,1684.36 996.895,1684.36 994.5,1683.5C 994.253,1681.14 994.919,1679.14 996.5,1677.5 Z"/></g>
<g><path style="opacity:1" fill="#f7f8fb" d="M 1049.5,1681.5 C 1050.68,1681.28 1051.68,1681.61 1052.5,1682.5C 1050.95,1683.45 1049.29,1683.79 1047.5,1683.5C 1048.17,1682.83 1048.83,1682.17 1049.5,1681.5 Z"/></g>
<g><path style="opacity:1" fill="#d8daec" d="M 1078.5,1679.5 C 1081.88,1679.18 1082.71,1680.18 1081,1682.5C 1080.33,1679.83 1079.67,1679.83 1079,1682.5C 1078.52,1681.55 1078.35,1680.55 1078.5,1679.5 Z"/></g>
<g><path style="opacity:1" fill="#eaebf5" d="M 1031.5,1681.5 C 1031.92,1682.22 1032.58,1682.72 1033.5,1683C 1026.83,1683.67 1026.83,1684.33 1033.5,1685C 1028.49,1685.87 1028.83,1686.54 1034.5,1687C 1030.94,1688.23 1027.61,1689.73 1024.5,1691.5C 1023.47,1689.1 1024.47,1687.6 1027.5,1687C 1026.04,1686.58 1025.54,1685.74 1026,1684.5C 1027.19,1682.32 1029.02,1681.32 1031.5,1681.5 Z"/></g>
<g><path style="opacity:1" fill="#fcfcfd" d="M 1047.5,1684.5 C 1049.92,1684.19 1052.26,1684.53 1054.5,1685.5C 1053.68,1686.39 1052.68,1686.72 1051.5,1686.5C 1050.17,1685.83 1048.83,1685.17 1047.5,1684.5 Z"/></g>
<g><path style="opacity:1" fill="#4a60a1" d="M 1079.5,1685.5 C 1086.05,1685.91 1086.05,1686.91 1079.5,1688.5C 1087.3,1690.37 1086.97,1691.37 1078.5,1691.5C 1078.33,1689.38 1078.66,1687.38 1079.5,1685.5 Z"/></g>
<g><path style="opacity:1" fill="#9ea5ce" d="M 1041.5,1682.5 C 1040.04,1682.43 1038.71,1682.77 1037.5,1683.5C 1037.19,1682.26 1036.69,1682.26 1036,1683.5C 1035.83,1684.5 1035.67,1685.5 1035.5,1686.5C 1036.18,1689.18 1036.84,1691.84 1037.5,1694.5C 1034.55,1695.36 1032.71,1697.36 1032,1700.5C 1030.28,1698.28 1028.78,1695.95 1027.5,1693.5C 1025.3,1694.84 1023.3,1696.5 1021.5,1698.5C 1019.45,1698.63 1017.78,1697.97 1016.5,1696.5C 1017.47,1694.2 1018.81,1692.2 1020.5,1690.5C 1021.36,1689.54 1022.03,1689.54 1022.5,1690.5C 1021.13,1695.41 1021.8,1695.75 1024.5,1691.5C 1027.61,1689.73 1030.94,1688.23 1034.5,1687C 1028.83,1686.54 1028.49,1685.87 1033.5,1685C 1026.83,1684.33 1026.83,1683.67 1033.5,1683C 1032.58,1682.72 1031.92,1682.22 1031.5,1681.5C 1031.08,1680.78 1030.42,1680.28 1029.5,1680C 1031.21,1679.8 1032.87,1679.8 1034.5,1680C 1031.83,1678.28 1032.16,1677.11 1035.5,1676.5C 1036.62,1677.91 1037.62,1679.41 1038.5,1681C 1039.74,1681.23 1040.74,1681.73 1041.5,1682.5 Z"/></g>
<g><path style="opacity:1" fill="#6574af" d="M 993.5,1685.5 C 994.931,1685.88 995.764,1686.88 996,1688.5C 996.914,1684.81 997.581,1685.15 998,1689.5C 998.29,1687.96 998.956,1686.62 1000,1685.5C 1000.5,1687.47 1000.66,1689.47 1000.5,1691.5C 998.167,1691.5 995.833,1691.5 993.5,1691.5C 993.5,1689.5 993.5,1687.5 993.5,1685.5 Z"/></g>
<g><path style="opacity:1" fill="#f3f4fa" d="M 1030.5,1692.5 C 1029.39,1692.56 1028.39,1692.89 1027.5,1693.5C 1027.5,1692.5 1027.5,1691.5 1027.5,1690.5C 1029.23,1690.19 1030.89,1690.02 1032.5,1690C 1031.62,1690.71 1030.95,1691.54 1030.5,1692.5 Z"/></g>
<g><path style="opacity:1" fill="#e5e6f2" d="M 1037.5,1683.5 C 1037.03,1686.35 1037.86,1688.68 1040,1690.5C 1042.5,1688.17 1043,1685.5 1041.5,1682.5C 1041.83,1682.5 1042.17,1682.5 1042.5,1682.5C 1043.69,1684.11 1044.69,1685.78 1045.5,1687.5C 1043.17,1689.58 1042,1692.25 1042,1695.5C 1041.13,1690.49 1040.46,1690.83 1040,1696.5C 1039.67,1694.83 1039.33,1693.17 1039,1691.5C 1038.77,1692.74 1038.27,1693.74 1037.5,1694.5C 1036.84,1691.84 1036.18,1689.18 1035.5,1686.5C 1035.67,1685.5 1035.83,1684.5 1036,1683.5C 1036.69,1682.26 1037.19,1682.26 1037.5,1683.5 Z"/></g>
<g><path style="opacity:1" fill="#425a9e" d="M 1041.5,1682.5 C 1043,1685.5 1042.5,1688.17 1040,1690.5C 1037.86,1688.68 1037.03,1686.35 1037.5,1683.5C 1038.71,1682.77 1040.04,1682.43 1041.5,1682.5 Z"/></g>
<g><path style="opacity:1" fill="#f0f0f7" d="M 1045.5,1687.5 C 1047,1686.51 1048.67,1686.51 1050.5,1687.5C 1052.29,1687.21 1053.95,1687.55 1055.5,1688.5C 1057.02,1690.16 1056.69,1691.32 1054.5,1692C 1055.42,1692.37 1056.25,1692.87 1057,1693.5C 1056.57,1696.03 1057.4,1698.37 1059.5,1700.5C 1058.5,1701.83 1057.5,1701.83 1056.5,1700.5C 1055.52,1696.53 1053.19,1693.86 1049.5,1692.5C 1049.05,1691.54 1048.38,1690.71 1047.5,1690C 1049.13,1690.2 1050.79,1690.2 1052.5,1690C 1050.26,1688.86 1047.92,1688.03 1045.5,1687.5 Z"/></g>
<g><path style="opacity:1" fill="#f1f2f8" d="M 1030.5,1692.5 C 1032.02,1692.49 1033.18,1691.82 1034,1690.5C 1033.95,1692.75 1032.78,1694.42 1030.5,1695.5C 1029.44,1694.58 1029.44,1693.58 1030.5,1692.5 Z"/></g>
<g><path style="opacity:1" fill="#5c6daa" d="M 994.5,1692.5 C 996.604,1692.2 998.604,1692.53 1000.5,1693.5C 997.833,1694.83 997.833,1696.17 1000.5,1697.5C 998.257,1698.47 995.924,1698.81 993.5,1698.5C 993.325,1696.38 993.659,1694.38 994.5,1692.5 Z"/></g>
<g><path style="opacity:1" fill="#f9f9fc" d="M 1027.5,1693.5 C 1028.78,1695.95 1030.28,1698.28 1032,1700.5C 1032.71,1697.36 1034.55,1695.36 1037.5,1694.5C 1038.34,1696.85 1039.67,1698.85 1041.5,1700.5C 1041.61,1701.12 1041.94,1701.62 1042.5,1702C 1034.5,1702.88 1026.5,1703.71 1018.5,1704.5C 1017.58,1704.46 1016.92,1704.12 1016.5,1703.5C 1017.17,1703.17 1017.83,1702.83 1018.5,1702.5C 1019.5,1702.17 1020.17,1701.5 1020.5,1700.5C 1020.83,1699.83 1021.17,1699.17 1021.5,1698.5C 1023.3,1696.5 1025.3,1694.84 1027.5,1693.5 Z"/></g>
<g><path style="opacity:1" fill="#f5f6fa" d="M 1049.5,1692.5 C 1051.11,1696.46 1050.44,1697.13 1047.5,1694.5C 1045.97,1691.54 1046.64,1690.88 1049.5,1692.5 Z"/></g>
<g><path style="opacity:1" fill="#f6f6fa" d="M 1046.5,1696.5 C 1047.03,1698.23 1048.03,1699.56 1049.5,1700.5C 1049.03,1701.69 1048.03,1702.36 1046.5,1702.5C 1044.7,1702.01 1043.03,1701.35 1041.5,1700.5C 1041.89,1698.06 1043.05,1696.06 1045,1694.5C 1045.28,1695.42 1045.78,1696.08 1046.5,1696.5 Z"/></g>
<g><path style="opacity:1" fill="#5165a5" d="M 1078.5,1694.5 C 1081.03,1693.55 1083.36,1694.22 1085.5,1696.5C 1083.89,1698.09 1081.89,1699.09 1079.5,1699.5C 1079.4,1697.79 1079.07,1696.12 1078.5,1694.5 Z"/></g>
<g><path style="opacity:1" fill="#8a93c3" d="M 1045.5,1687.5 C 1047.92,1688.03 1050.26,1688.86 1052.5,1690C 1050.79,1690.2 1049.13,1690.2 1047.5,1690C 1048.38,1690.71 1049.05,1691.54 1049.5,1692.5C 1046.64,1690.88 1045.97,1691.54 1047.5,1694.5C 1047.67,1695.49 1047.34,1696.16 1046.5,1696.5C 1045.78,1696.08 1045.28,1695.42 1045,1694.5C 1043.05,1696.06 1041.89,1698.06 1041.5,1700.5C 1039.67,1698.85 1038.34,1696.85 1037.5,1694.5C 1038.27,1693.74 1038.77,1692.74 1039,1691.5C 1039.33,1693.17 1039.67,1694.83 1040,1696.5C 1040.46,1690.83 1041.13,1690.49 1042,1695.5C 1042,1692.25 1043.17,1689.58 1045.5,1687.5 Z"/></g>
<g><path style="opacity:1" fill="#f7f8fb" d="M 1049.5,1700.5 C 1051.35,1695.39 1053.35,1695.56 1055.5,1701C 1053.4,1701.68 1051.4,1701.51 1049.5,1700.5 Z"/></g>
<g><path style="opacity:1" fill="#b0b5d7" d="M 1059.5,1689.5 C 1061.34,1691.85 1062.67,1694.52 1063.5,1697.5C 1063.59,1698.5 1063.25,1699.33 1062.5,1700C 1065.1,1700.78 1065.1,1701.28 1062.5,1701.5C 1060.77,1700.99 1060.43,1700.16 1061.5,1699C 1059.99,1696.5 1058.66,1693.84 1057.5,1691C 1057.84,1689.97 1058.5,1689.47 1059.5,1689.5 Z"/></g>
<g><path style="opacity:1" fill="#a5abd1" d="M 1020.5,1700.5 C 1020.17,1701.5 1019.5,1702.17 1018.5,1702.5C 1017.74,1701.73 1016.74,1701.23 1015.5,1701C 1017.14,1699.48 1018.81,1699.31 1020.5,1700.5 Z"/></g>
<g><path style="opacity:1" fill="#475ea0" d="M 1016.5,1696.5 C 1017.78,1697.97 1019.45,1698.63 1021.5,1698.5C 1021.17,1699.17 1020.83,1699.83 1020.5,1700.5C 1018.81,1699.31 1017.14,1699.48 1015.5,1701C 1016.74,1701.23 1017.74,1701.73 1018.5,1702.5C 1017.83,1702.83 1017.17,1703.17 1016.5,1703.5C 1015.79,1702.6 1014.79,1702.26 1013.5,1702.5C 1014.5,1700.5 1015.5,1698.5 1016.5,1696.5 Z"/></g>
<g><path style="opacity:1" fill="#c8cbe4" d="M 1062.5,1702.5 C 1063.55,1702.35 1064.55,1702.52 1065.5,1703C 1060.49,1703.87 1060.83,1704.54 1066.5,1705C 1058.53,1704.6 1050.53,1704.77 1042.5,1705.5C 1049.01,1704.33 1055.67,1703.33 1062.5,1702.5 Z"/></g>
<g><path style="opacity:1" fill="#6c7ab4" d="M 996.5,1703.5 C 998.332,1704.14 998.665,1705.14 997.5,1706.5C 996.614,1705.68 996.281,1704.68 996.5,1703.5 Z"/></g>
<g><path style="opacity:1" fill="#6e7cb5" d="M 1080.5,1703.5 C 1082.46,1703.95 1082.8,1704.95 1081.5,1706.5C 1080.61,1705.68 1080.28,1704.68 1080.5,1703.5 Z"/></g>
<g><path style="opacity:1" fill="#485fa1" d="M 1063.5,1697.5 C 1066.39,1701.6 1069.06,1705.94 1071.5,1710.5C 1071.04,1711.3 1070.38,1711.63 1069.5,1711.5C 1068.41,1709.88 1066.74,1709.05 1064.5,1709C 1065.83,1708.67 1067.17,1708.33 1068.5,1708C 1061.38,1705.26 1054.21,1705.09 1047,1707.5C 1036.51,1707.21 1026.01,1706.88 1015.5,1706.5C 1019.51,1705.3 1023.68,1705.3 1028,1706.5C 1032.86,1705.1 1037.7,1704.76 1042.5,1705.5C 1050.53,1704.77 1058.53,1704.6 1066.5,1705C 1060.83,1704.54 1060.49,1703.87 1065.5,1703C 1064.55,1702.52 1063.55,1702.35 1062.5,1702.5C 1062.5,1702.17 1062.5,1701.83 1062.5,1701.5C 1065.1,1701.28 1065.1,1700.78 1062.5,1700C 1063.25,1699.33 1063.59,1698.5 1063.5,1697.5 Z"/></g>
<g><path style="opacity:1" fill="#395499" d="M 1016.5,1708.5 C 1016.5,1708.17 1016.5,1707.83 1016.5,1707.5C 1021.84,1707.82 1027.18,1708.32 1032.5,1709C 1027.15,1709.43 1021.82,1709.27 1016.5,1708.5 Z"/></g>
<g><path style="opacity:1" fill="#aab0d4" d="M 1069.5,1711.5 C 1068.83,1711.5 1068.17,1711.5 1067.5,1711.5C 1064.04,1710.48 1060.37,1709.81 1056.5,1709.5C 1040.2,1710.35 1025.86,1710.35 1013.5,1709.5C 1014.61,1709.44 1015.61,1709.11 1016.5,1708.5C 1021.82,1709.27 1027.15,1709.43 1032.5,1709C 1027.18,1708.32 1021.84,1707.82 1016.5,1707.5C 1014.78,1707.54 1014.44,1707.21 1015.5,1706.5C 1026.01,1706.88 1036.51,1707.21 1047,1707.5C 1054.21,1705.09 1061.38,1705.26 1068.5,1708C 1067.17,1708.33 1065.83,1708.67 1064.5,1709C 1066.74,1709.05 1068.41,1709.88 1069.5,1711.5 Z"/></g>
<g><path style="opacity:1" fill="#495fa1" d="M 1034.5,1708.5 C 1035.62,1707.84 1036.95,1707.51 1038.5,1707.5C 1042.5,1708 1046.5,1708.5 1050.5,1709C 1045.16,1709.32 1039.83,1709.15 1034.5,1708.5 Z"/></g>
<g><path style="opacity:1" fill="#4d62a3" d="M 996.5,1710.5 C 999.247,1710.19 1001.91,1710.52 1004.5,1711.5C 1002.81,1713.36 1001.31,1715.36 1000,1717.5C 999.996,1714.82 998.829,1712.49 996.5,1710.5 Z"/></g>
<g><path style="opacity:1" fill="#596ba9" d="M 1012.5,1703.5 C 1013.04,1703.56 1013.38,1703.89 1013.5,1704.5C 1011.45,1706.62 1011.45,1708.29 1013.5,1709.5C 1025.86,1710.35 1040.2,1710.35 1056.5,1709.5C 1060.37,1709.81 1064.04,1710.48 1067.5,1711.5C 1047.82,1711.83 1028.16,1711.5 1008.5,1710.5C 1010.1,1708.3 1011.43,1705.97 1012.5,1703.5 Z"/></g>
<g><path style="opacity:1" fill="#4f64a4" d="M 1080.5,1710.5 C 1081.24,1710.37 1081.91,1710.54 1082.5,1711C 1081.62,1712.59 1080.62,1714.09 1079.5,1715.5C 1077.67,1714.75 1076,1713.75 1074.5,1712.5C 1075.92,1711.45 1077.42,1711.45 1079,1712.5C 1080.03,1712.16 1080.53,1711.5 1080.5,1710.5 Z"/></g>
<g><path style="opacity:1" fill="#4b61a2" d="M 1071.5,1715.5 C 1074.06,1715.39 1076.39,1716.06 1078.5,1717.5C 1077.5,1718.33 1076.5,1719.17 1075.5,1720C 1076.65,1720.91 1076.49,1721.75 1075,1722.5C 1073.12,1720.47 1071.95,1718.14 1071.5,1715.5 Z"/></g>
<g><path style="opacity:1" fill="#5165a5" d="M 1004.5,1714.5 C 1007.96,1715.26 1008.29,1716.76 1005.5,1719C 1006.55,1719.49 1007.55,1719.33 1008.5,1718.5C 1009.31,1718.81 1009.97,1719.31 1010.5,1720C 1008.96,1721.88 1007.12,1723.38 1005,1724.5C 1004.38,1723.55 1004.55,1722.72 1005.5,1722C 1003.64,1721.32 1001.97,1720.32 1000.5,1719C 1002.04,1717.63 1003.37,1716.13 1004.5,1714.5 Z"/></g>
<g><path style="opacity:1" fill="#475ea0" d="M 1015.5,1725.5 C 1013.86,1724.63 1012.19,1724.13 1010.5,1724C 1013.15,1727.21 1012.98,1727.71 1010,1725.5C 1009.49,1727 1009.99,1728.16 1011.5,1729C 1009.43,1728.98 1007.77,1727.98 1006.5,1726C 1009.51,1720.44 1012.51,1720.28 1015.5,1725.5 Z"/></g>
<g><path style="opacity:1" fill="#5367a6" d="M 1068.5,1719.5 C 1070.58,1720.73 1072.58,1722.23 1074.5,1724C 1074,1724.5 1073.5,1725 1073,1725.5C 1071.95,1724.48 1070.78,1724.32 1069.5,1725C 1070.52,1726.05 1070.68,1727.22 1070,1728.5C 1065.21,1723.13 1064.04,1723.8 1066.5,1730.5C 1066.17,1730.83 1065.83,1731.17 1065.5,1731.5C 1064.52,1730.02 1063.35,1728.69 1062,1727.5C 1060.3,1729.35 1060.46,1731.18 1062.5,1733C 1061.09,1734.45 1059.59,1734.29 1058,1732.5C 1058.62,1734.09 1058.28,1735.43 1057,1736.5C 1055.19,1734.28 1054.69,1731.95 1055.5,1729.5C 1057.52,1730.81 1058.69,1730.15 1059,1727.5C 1062.89,1725.65 1066.05,1722.98 1068.5,1719.5 Z"/></g>
<g><path style="opacity:1" fill="#5064a5" d="M 1015.5,1725.5 C 1018.17,1726.17 1019.83,1727.83 1020.5,1730.5C 1019.29,1731.23 1018.29,1732.23 1017.5,1733.5C 1016.8,1730.99 1015.47,1730.32 1013.5,1731.5C 1013.17,1731.17 1012.83,1730.83 1012.5,1730.5C 1013.76,1728.97 1014.76,1727.3 1015.5,1725.5 Z"/></g>
<g><path style="opacity:1" fill="#5467a6" d="M 1032.5,1732.5 C 1033.5,1732.5 1034.5,1732.5 1035.5,1732.5C 1037.84,1738.92 1036.17,1740.58 1030.5,1737.5C 1031.46,1735.92 1032.12,1734.26 1032.5,1732.5 Z"/></g>
<g><path style="opacity:1" fill="#576aa8" d="M 1020.5,1730.5 C 1021.42,1729.7 1022.42,1729.53 1023.5,1730C 1022.24,1732.49 1022.57,1732.83 1024.5,1731C 1028.11,1729.75 1029.61,1730.91 1029,1734.5C 1027.39,1731.92 1025.89,1731.92 1024.5,1734.5C 1029.68,1736.57 1029.34,1737.4 1023.5,1737C 1022.81,1735.93 1022.31,1734.77 1022,1733.5C 1021.69,1734.31 1021.19,1734.97 1020.5,1735.5C 1019.57,1733.91 1019.57,1732.24 1020.5,1730.5 Z"/></g>
<g><path style="opacity:1" fill="#4a60a2" d="M 1042.5,1732.5 C 1048.97,1733.62 1048.97,1734.29 1042.5,1734.5C 1042.5,1735.5 1042.5,1736.5 1042.5,1737.5C 1044.33,1736.95 1046,1736.95 1047.5,1737.5C 1044.56,1740.35 1042.23,1739.85 1040.5,1736C 1040.98,1734.7 1041.64,1733.53 1042.5,1732.5 Z"/></g>
<g><path style="opacity:1" fill="#4b61a2" d="M 1050.5,1730.5 C 1054.46,1731.05 1054.46,1731.89 1050.5,1733C 1051.5,1733.33 1052.5,1733.67 1053.5,1734C 1052.33,1734.42 1051.33,1735.09 1050.5,1736C 1057.04,1735.74 1057.04,1736.57 1050.5,1738.5C 1047.93,1735.74 1047.93,1733.07 1050.5,1730.5 Z"/></g>
<g><path style="opacity:0.88" fill="#000000" d="M 479.5,1799.5 C 482.467,1799.99 485.133,1801.16 487.5,1803C 481.043,1817.7 475.376,1832.7 470.5,1848C 470.803,1853.98 473.803,1857.98 479.5,1860C 486.243,1862.99 491.743,1861.49 496,1855.5C 502.057,1842 507.724,1828.33 513,1814.5C 513.414,1814.04 513.914,1813.71 514.5,1813.5C 517.132,1814.47 519.465,1815.81 521.5,1817.5C 515.943,1831.61 510.109,1845.61 504,1859.5C 495.293,1871.53 484.46,1873.7 471.5,1866C 462.454,1859.68 459.621,1851.18 463,1840.5C 468.019,1826.6 473.519,1812.94 479.5,1799.5 Z"/></g>
<g><path style="opacity:0.88" fill="#000000" d="M 1578.5,1822.5 C 1584.19,1821.89 1588.69,1823.89 1592,1828.5C 1596.12,1840.04 1601.29,1851.04 1607.5,1861.5C 1603.82,1865.05 1600.32,1865.05 1597,1861.5C 1591.17,1872 1582.67,1875.16 1571.5,1871C 1565.26,1863.94 1564.93,1856.6 1570.5,1849C 1576.34,1845.58 1582,1841.92 1587.5,1838C 1582.36,1828.73 1576.19,1828.23 1569,1836.5C 1568.5,1839.15 1568.34,1841.81 1568.5,1844.5C 1565.83,1844.83 1563.17,1845.17 1560.5,1845.5C 1558.8,1836.74 1561.8,1830.24 1569.5,1826C 1572.6,1824.77 1575.6,1823.61 1578.5,1822.5 Z M 1588.5,1845.5 C 1594.82,1853.68 1593.15,1860.18 1583.5,1865C 1577,1865.83 1574.17,1863 1575,1856.5C 1579.48,1852.69 1583.98,1849.03 1588.5,1845.5 Z"/></g>
<g><path style="opacity:0.802" fill="#000000" d="M 567.5,1832.5 C 570.475,1832.71 573.142,1833.71 575.5,1835.5C 574.48,1838.6 573.313,1841.6 572,1844.5C 569.993,1843.33 567.827,1842.66 565.5,1842.5C 565.547,1839.03 566.213,1835.7 567.5,1832.5 Z"/></g>
<g><path style="opacity:0.877" fill="#000000" d="M 522.5,1835.5 C 524.55,1835.96 526.55,1836.63 528.5,1837.5C 528.833,1838.83 529.167,1840.17 529.5,1841.5C 544.56,1837.58 551.727,1843.25 551,1858.5C 547.649,1869.39 543.816,1880.06 539.5,1890.5C 537.075,1889.69 534.742,1888.69 532.5,1887.5C 536.368,1876.56 540.035,1865.56 543.5,1854.5C 539.633,1846.82 534.133,1845.49 527,1850.5C 522.743,1860.27 519.076,1870.27 516,1880.5C 512.975,1881.71 510.141,1881.21 507.5,1879C 512.602,1864.53 517.602,1850.03 522.5,1835.5 Z"/></g>
<g><path style="opacity:0.875" fill="#000000" d="M 1546.5,1835.5 C 1547.83,1835.5 1549.17,1835.5 1550.5,1835.5C 1555.06,1849.67 1559.72,1863.84 1564.5,1878C 1560.97,1882.15 1558.14,1881.98 1556,1877.5C 1552.35,1885.47 1546.19,1888.63 1537.5,1887C 1534.46,1885.97 1531.96,1884.14 1530,1881.5C 1525.33,1869.65 1521.16,1857.65 1517.5,1845.5C 1519.94,1845.24 1522.27,1844.58 1524.5,1843.5C 1528.66,1854.49 1532.83,1865.49 1537,1876.5C 1541.56,1880.55 1545.9,1880.22 1550,1875.5C 1550.93,1873.54 1551.76,1871.54 1552.5,1869.5C 1549.67,1859.18 1546.34,1849.01 1542.5,1839C 1543.35,1837.23 1544.68,1836.06 1546.5,1835.5 Z"/></g>
<g><path style="opacity:0.883" fill="#000000" d="M 1508.5,1848.5 C 1509.5,1848.41 1510.33,1848.75 1511,1849.5C 1514.67,1861.83 1518.33,1874.17 1522,1886.5C 1526.13,1895.59 1525.3,1904.09 1519.5,1912C 1512.06,1917.76 1504.06,1918.76 1495.5,1915C 1492.64,1912.45 1490.97,1909.28 1490.5,1905.5C 1492.92,1905.71 1495.25,1905.37 1497.5,1904.5C 1501.01,1909.75 1505.68,1910.92 1511.5,1908C 1516.85,1903.71 1517.85,1898.54 1514.5,1892.5C 1503.57,1902.57 1493.74,1901.57 1485,1889.5C 1479.91,1879.78 1479.24,1869.78 1483,1859.5C 1488.74,1852.36 1495.74,1850.7 1504,1854.5C 1504.49,1853.45 1504.33,1852.45 1503.5,1851.5C 1505.14,1850.3 1506.81,1849.3 1508.5,1848.5 Z M 1494.5,1859.5 C 1503.23,1860.06 1508.4,1864.72 1510,1873.5C 1512.77,1880.85 1510.94,1886.68 1504.5,1891C 1499.65,1892.16 1495.82,1890.66 1493,1886.5C 1488.88,1880.05 1487.54,1873.05 1489,1865.5C 1490.36,1862.98 1492.19,1860.98 1494.5,1859.5 Z"/></g>
<g><path style="opacity:0.872" fill="#000000" d="M 562.5,1849.5 C 565.471,1849.44 568.138,1850.27 570.5,1852C 565.781,1866.38 561.447,1880.88 557.5,1895.5C 555.146,1895.16 552.813,1894.66 550.5,1894C 549.978,1893.44 549.645,1892.77 549.5,1892C 553.759,1877.79 558.093,1863.62 562.5,1849.5 Z"/></g>
<g><path style="opacity:0.872" fill="#000000" d="M 574.5,1852.5 C 577.067,1853.48 579.733,1854.14 582.5,1854.5C 582.8,1866.51 583.3,1878.51 584,1890.5C 589.97,1881.03 596.137,1871.7 602.5,1862.5C 605.663,1861.19 608.663,1861.53 611.5,1863.5C 603.196,1876.3 594.696,1888.97 586,1901.5C 585.261,1902.57 584.261,1903.24 583,1903.5C 581.234,1902.77 579.401,1902.43 577.5,1902.5C 576.11,1885.87 575.11,1869.2 574.5,1852.5 Z"/></g>
<g><path style="opacity:0.88" fill="#000000" d="M 1456.5,1862.5 C 1462.33,1861.5 1467.16,1863.16 1471,1867.5C 1474.15,1877.78 1477.15,1888.11 1480,1898.5C 1480.91,1900.66 1482.08,1902.66 1483.5,1904.5C 1480.72,1906.3 1477.72,1906.8 1474.5,1906C 1473.87,1905.25 1473.37,1904.42 1473,1903.5C 1466.52,1911.66 1458.35,1914.16 1448.5,1911C 1440.52,1903.09 1440.52,1895.09 1448.5,1887C 1453.17,1885 1457.83,1883 1462.5,1881C 1466.23,1878.17 1466.23,1875.17 1462.5,1872C 1453.02,1869.24 1447.69,1872.74 1446.5,1882.5C 1443.83,1882.5 1441.17,1882.5 1438.5,1882.5C 1439.23,1871.1 1445.23,1864.43 1456.5,1862.5 Z M 1466.5,1886.5 C 1470.33,1890.77 1470.5,1895.44 1467,1900.5C 1463.15,1904.59 1458.65,1905.75 1453.5,1904C 1449.57,1900.46 1449.57,1896.96 1453.5,1893.5C 1458.05,1891.39 1462.39,1889.06 1466.5,1886.5 Z"/></g>
<g><path style="opacity:0.883" fill="#000000" d="M 622.5,1866.5 C 637.284,1865.45 644.95,1872.29 645.5,1887C 645.365,1890.53 645.031,1894.03 644.5,1897.5C 634.8,1895.33 625.134,1892.99 615.5,1890.5C 612.857,1901.09 616.857,1906.59 627.5,1907C 630.942,1905.72 633.608,1903.55 635.5,1900.5C 638.317,1901.1 640.65,1902.43 642.5,1904.5C 636.366,1914.48 627.699,1917.31 616.5,1913C 609.377,1908.93 605.71,1902.76 605.5,1894.5C 606.053,1885.67 609.053,1877.83 614.5,1871C 617.099,1869.2 619.766,1867.7 622.5,1866.5 Z M 626.5,1873.5 C 635.469,1874.93 638.969,1879.93 637,1888.5C 630.26,1886.44 623.427,1884.61 616.5,1883C 618.44,1878.22 621.774,1875.06 626.5,1873.5 Z"/></g>
<g><path style="opacity:0.818" fill="#000000" d="M 721.5,1869.5 C 724.206,1869.58 726.873,1869.91 729.5,1870.5C 729.384,1873.86 729.051,1877.19 728.5,1880.5C 725.873,1879.91 723.206,1879.58 720.5,1879.5C 721.051,1876.19 721.384,1872.86 721.5,1869.5 Z"/></g>
<g><path style="opacity:0.872" fill="#000000" d="M 1427.5,1869.5 C 1430.17,1869.83 1432.83,1870.17 1435.5,1870.5C 1435.8,1873.73 1435.13,1876.73 1433.5,1879.5C 1430.02,1878.31 1427.19,1879.31 1425,1882.5C 1424.95,1894.42 1426.78,1906.09 1430.5,1917.5C 1427.8,1919.48 1424.97,1919.81 1422,1918.5C 1418.96,1904.3 1415.79,1890.14 1412.5,1876C 1415.52,1872.53 1418.35,1872.7 1421,1876.5C 1422.05,1872.96 1424.21,1870.63 1427.5,1869.5 Z"/></g>
<g><path style="opacity:0.873" fill="#000000" d="M 656.5,1873.5 C 658.414,1874.18 660.414,1874.68 662.5,1875C 663.212,1876.43 663.379,1877.93 663,1879.5C 668.71,1874.1 673.877,1874.6 678.5,1881C 677.299,1883.23 675.965,1885.4 674.5,1887.5C 670.764,1883.78 667.098,1883.78 663.5,1887.5C 659.596,1897.84 656.762,1908.51 655,1919.5C 652.033,1920.81 649.2,1920.48 646.5,1918.5C 649.993,1903.53 653.327,1888.53 656.5,1873.5 Z"/></g>
<g><path style="opacity:0.845" fill="#000000" d="M 1314.5,1874.5 C 1322.04,1873.74 1324.38,1876.91 1321.5,1884C 1319.23,1884.76 1317.06,1884.59 1315,1883.5C 1314.13,1880.39 1313.96,1877.39 1314.5,1874.5 Z"/></g>
<g><path style="opacity:0.891" fill="#000000" d="M 763.5,1876.5 C 765.857,1876.34 768.19,1876.5 770.5,1877C 768.883,1897.33 766.216,1917.67 762.5,1938C 762.167,1938.83 761.833,1939.67 761.5,1940.5C 759.591,1939.65 757.591,1939.32 755.5,1939.5C 755.657,1938.13 755.49,1936.79 755,1935.5C 742.386,1941.52 734.053,1937.85 730,1924.5C 728.517,1915.37 729.851,1906.71 734,1898.5C 738.649,1891.5 745.149,1889 753.5,1891C 756.102,1891.88 758.269,1893.38 760,1895.5C 761.948,1889.38 763.115,1883.05 763.5,1876.5 Z M 747.5,1897.5 C 755.588,1898.8 759.255,1903.63 758.5,1912C 759.046,1919.17 756.713,1925.17 751.5,1930C 747.001,1932.37 743.168,1931.53 740,1927.5C 736.822,1919.9 736.822,1912.23 740,1904.5C 741.742,1901.25 744.242,1898.92 747.5,1897.5 Z"/></g>
<g><path style="opacity:0.895" fill="#000000" d="M 1301.5,1876.5 C 1303.12,1876.36 1304.29,1877.03 1305,1878.5C 1307.83,1899.14 1310.33,1919.8 1312.5,1940.5C 1309.48,1940.66 1306.48,1940.5 1303.5,1940C 1292.67,1926.5 1281.83,1913 1271,1899.5C 1271.8,1913.37 1273.3,1927.21 1275.5,1941C 1275.44,1942.44 1275.11,1943.77 1274.5,1945C 1272.19,1945.5 1269.86,1945.66 1267.5,1945.5C 1264.92,1924.49 1262.25,1903.49 1259.5,1882.5C 1262.49,1881.87 1265.49,1881.7 1268.5,1882C 1280.05,1895.88 1291.21,1910.05 1302,1924.5C 1300.58,1908.82 1298.75,1893.16 1296.5,1877.5C 1298.41,1877.78 1300.08,1877.45 1301.5,1876.5 Z"/></g>
<g><path style="opacity:0.883" fill="#000000" d="M 1385.5,1878.5 C 1390.18,1878.33 1394.85,1878.5 1399.5,1879C 1401.29,1879.78 1402.79,1880.95 1404,1882.5C 1407.09,1891.96 1409.43,1901.63 1411,1911.5C 1411.74,1915.06 1413.24,1918.23 1415.5,1921C 1412.89,1922.02 1410.23,1922.85 1407.5,1923.5C 1406.5,1922.17 1405.5,1920.83 1404.5,1919.5C 1397.25,1927.79 1388.59,1929.62 1378.5,1925C 1372.87,1917.37 1373.2,1910.03 1379.5,1903C 1386.28,1900.19 1392.95,1897.19 1399.5,1894C 1396.68,1885.72 1391.35,1883.72 1383.5,1888C 1381.21,1889.96 1379.88,1892.46 1379.5,1895.5C 1376.92,1896.55 1374.25,1897.22 1371.5,1897.5C 1371.6,1887.74 1376.27,1881.41 1385.5,1878.5 Z M 1398.5,1902.5 C 1399.5,1902.41 1400.33,1902.75 1401,1903.5C 1403.06,1911.54 1400.23,1917.04 1392.5,1920C 1384.93,1920.77 1382.1,1917.61 1384,1910.5C 1388.69,1907.41 1393.52,1904.74 1398.5,1902.5 Z"/></g>
<g><path style="opacity:0.882" fill="#000000" d="M 685.5,1880.5 C 693.934,1879.15 701.101,1881.48 707,1887.5C 708.318,1890.43 708.985,1893.43 709,1896.5C 706.619,1897.44 704.119,1897.77 701.5,1897.5C 699.857,1889.01 694.857,1886.17 686.5,1889C 683.833,1891.33 683.833,1893.67 686.5,1896C 691.341,1898.92 696.341,1901.59 701.5,1904C 706.885,1908.48 708.385,1913.98 706,1920.5C 700.531,1928.75 693.031,1931.25 683.5,1928C 675.563,1924.89 671.896,1919.05 672.5,1910.5C 675.167,1910.5 677.833,1910.5 680.5,1910.5C 680.945,1919.43 685.612,1922.93 694.5,1921C 698.662,1918.69 699.328,1915.69 696.5,1912C 691.167,1909 685.833,1906 680.5,1903C 674.524,1893.74 676.191,1886.24 685.5,1880.5 Z"/></g>
<g><path style="opacity:0.873" fill="#000000" d="M 1348.5,1885.5 C 1358.36,1884.42 1365.03,1888.42 1368.5,1897.5C 1366.58,1898.98 1364.41,1899.98 1362,1900.5C 1356.96,1892.02 1350.96,1891.02 1344,1897.5C 1341.64,1905.74 1342.3,1913.74 1346,1921.5C 1352.17,1928.41 1357.83,1928.08 1363,1920.5C 1363.5,1918.19 1363.66,1915.86 1363.5,1913.5C 1366.17,1913.5 1368.83,1913.5 1371.5,1913.5C 1371.07,1929.43 1363.07,1935.93 1347.5,1933C 1340.52,1929.23 1336.36,1923.4 1335,1915.5C 1334.64,1912.47 1334.14,1909.47 1333.5,1906.5C 1333.6,1895.77 1338.6,1888.77 1348.5,1885.5 Z"/></g>
<g><path style="opacity:0.875" fill="#000000" d="M 718.5,1886.5 C 721.206,1886.58 723.873,1886.91 726.5,1887.5C 724.426,1902.87 722.093,1918.2 719.5,1933.5C 716.873,1932.91 714.206,1932.58 711.5,1932.5C 714.05,1917.2 716.384,1901.87 718.5,1886.5 Z"/></g>
<g><path style="opacity:0.889" fill="#000000" d="M 847.5,1886.5 C 850.167,1886.5 852.833,1886.5 855.5,1886.5C 854.027,1907.89 852.027,1929.22 849.5,1950.5C 845.758,1951.27 843.258,1949.94 842,1946.5C 832.11,1951.98 824.11,1949.98 818,1940.5C 813.083,1926.95 815.25,1914.78 824.5,1904C 832.292,1900.04 839.459,1900.87 846,1906.5C 846.831,1899.85 847.331,1893.19 847.5,1886.5 Z M 832.5,1908.5 C 841.448,1909.35 845.448,1914.35 844.5,1923.5C 844.748,1928.84 843.581,1933.84 841,1938.5C 836.609,1943.27 831.943,1943.6 827,1939.5C 822.689,1931.7 822.355,1923.7 826,1915.5C 827.694,1912.64 829.861,1910.31 832.5,1908.5 Z"/></g>
<g><path style="opacity:0.887" fill="#000000" d="M 1180.5,1889.5 C 1182.83,1889.5 1185.17,1889.5 1187.5,1889.5C 1188.7,1910.84 1190.03,1932.18 1191.5,1953.5C 1189.14,1953.66 1186.81,1953.5 1184.5,1953C 1183.87,1952.25 1183.37,1951.42 1183,1950.5C 1175.44,1957.11 1167.78,1957.11 1160,1950.5C 1152.22,1938.23 1151.55,1925.56 1158,1912.5C 1163.27,1907.75 1169.44,1906.25 1176.5,1908C 1177.93,1908.47 1179.1,1909.3 1180,1910.5C 1179.75,1903.43 1179.92,1896.43 1180.5,1889.5 Z M 1168.5,1914.5 C 1176.54,1914.36 1181.04,1918.36 1182,1926.5C 1183.47,1933.57 1182.3,1940.07 1178.5,1946C 1173.35,1949.37 1168.85,1948.54 1165,1943.5C 1161.36,1936.1 1160.69,1928.44 1163,1920.5C 1164.36,1917.98 1166.19,1915.98 1168.5,1914.5 Z"/></g>
<g><path style="opacity:0.886" fill="#000000" d="M 902.5,1890.5 C 919.654,1887.72 929.654,1894.72 932.5,1911.5C 929.786,1911.75 927.119,1911.92 924.5,1912C 919.902,1898.46 911.235,1895.13 898.5,1902C 891.83,1910.33 889.33,1919.83 891,1930.5C 892.729,1943.24 899.896,1948.74 912.5,1947C 918.825,1944.2 922.659,1939.37 924,1932.5C 926.979,1933.55 929.812,1934.88 932.5,1936.5C 924.309,1956.43 910.642,1961.27 891.5,1951C 884.827,1943.32 881.493,1934.32 881.5,1924C 881.42,1912.56 885.42,1902.89 893.5,1895C 896.437,1893.2 899.437,1891.7 902.5,1890.5 Z"/></g>
<g><path style="opacity:0.877" fill="#000000" d="M 1317.5,1891.5 C 1319.83,1891.5 1322.17,1891.5 1324.5,1891.5C 1326.51,1906.56 1328.84,1921.56 1331.5,1936.5C 1329.19,1937.27 1326.85,1937.94 1324.5,1938.5C 1323.81,1937.97 1323.31,1937.31 1323,1936.5C 1321,1922.64 1318.83,1908.81 1316.5,1895C 1316.65,1893.74 1316.98,1892.58 1317.5,1891.5 Z"/></g>
<g><path style="opacity:0.891" fill="#000000" d="M 1115.5,1893.5 C 1118.17,1893.5 1120.83,1893.5 1123.5,1893.5C 1124.33,1914.83 1125,1936.16 1125.5,1957.5C 1122.83,1957.5 1120.17,1957.5 1117.5,1957.5C 1117.06,1936.16 1116.39,1914.83 1115.5,1893.5 Z"/></g>
<g><path style="opacity:0.885" fill="#000000" d="M 786.5,1896.5 C 793.196,1895.85 799.529,1897.02 805.5,1900C 808.579,1902.79 810.246,1906.29 810.5,1910.5C 808.086,1922.12 807.42,1933.78 808.5,1945.5C 805.681,1945.74 802.681,1945.74 799.5,1945.5C 799.66,1943.8 799.494,1942.13 799,1940.5C 791.777,1945.09 784.277,1945.59 776.5,1942C 771.741,1937.51 770.241,1932.01 772,1925.5C 773.598,1920.9 776.765,1918.07 781.5,1917C 788.191,1916.67 794.857,1916.17 801.5,1915.5C 802.874,1907.58 799.541,1903.58 791.5,1903.5C 786.7,1904.3 783.366,1906.96 781.5,1911.5C 779.205,1910.57 776.871,1909.73 774.5,1909C 776.015,1902.32 780.015,1898.15 786.5,1896.5 Z M 799.5,1922.5 C 800.966,1931.23 797.133,1936.23 788,1937.5C 779.683,1936.04 777.849,1931.87 782.5,1925C 788.303,1924.11 793.97,1923.28 799.5,1922.5 Z"/></g>
<g><path style="opacity:0.885" fill="#000000" d="M 1033.5,1896.5 C 1035.45,1901.4 1036.11,1906.73 1035.5,1912.5C 1037.83,1912.5 1040.17,1912.5 1042.5,1912.5C 1042.5,1914.83 1042.5,1917.17 1042.5,1919.5C 1040.17,1919.5 1037.83,1919.5 1035.5,1919.5C 1035.33,1929.51 1035.5,1939.51 1036,1949.5C 1037.79,1951.23 1039.96,1951.9 1042.5,1951.5C 1042.89,1954.15 1042.89,1956.65 1042.5,1959C 1039.17,1959.67 1035.83,1959.67 1032.5,1959C 1030.33,1958.17 1028.83,1956.67 1028,1954.5C 1027.5,1942.84 1027.33,1931.17 1027.5,1919.5C 1025.83,1919.5 1024.17,1919.5 1022.5,1919.5C 1022.5,1917.17 1022.5,1914.83 1022.5,1912.5C 1024.17,1912.5 1025.83,1912.5 1027.5,1912.5C 1027.18,1908.45 1027.51,1904.45 1028.5,1900.5C 1030.42,1899.39 1032.09,1898.05 1033.5,1896.5 Z"/></g>
<g><path style="opacity:0.884" fill="#000000" d="M 1211.5,1903.5 C 1228.22,1903.22 1236.22,1911.55 1235.5,1928.5C 1225.79,1929.2 1216.12,1930.2 1206.5,1931.5C 1206.89,1941.88 1212.22,1945.71 1222.5,1943C 1225.6,1940.97 1227.26,1938.14 1227.5,1934.5C 1230.57,1934.18 1233.57,1934.52 1236.5,1935.5C 1233.01,1949.08 1224.35,1954.25 1210.5,1951C 1207.27,1949.8 1204.44,1947.97 1202,1945.5C 1196.86,1936.35 1195.53,1926.69 1198,1916.5C 1200.45,1909.88 1204.95,1905.55 1211.5,1903.5 Z M 1214.5,1910.5 C 1221.19,1911.36 1225.03,1915.03 1226,1921.5C 1219.25,1922.58 1212.42,1923.24 1205.5,1923.5C 1205.33,1916.81 1208.33,1912.48 1214.5,1910.5 Z"/></g>
<g><path style="opacity:0.881" fill="#000000" d="M 953.5,1909.5 C 965.532,1909.03 972.699,1914.7 975,1926.5C 975.499,1930.15 975.665,1933.82 975.5,1937.5C 965.159,1936.48 954.826,1936.48 944.5,1937.5C 945.303,1944.97 949.303,1949.63 956.5,1951.5C 961.527,1950.64 964.861,1947.8 966.5,1943C 973.183,1941.21 975.35,1943.37 973,1949.5C 965.164,1959.21 955.664,1961.04 944.5,1955C 936.727,1946.14 934.56,1935.97 938,1924.5C 940.455,1916.54 945.621,1911.54 953.5,1909.5 Z M 952.5,1917.5 C 961.39,1916.22 966.39,1920.05 967.5,1929C 960.039,1929.96 952.705,1929.46 945.5,1927.5C 946.873,1923.4 949.206,1920.06 952.5,1917.5 Z"/></g>
<g><path style="opacity:0.885" fill="#000000" d="M 1086.5,1910.5 C 1091.25,1910.27 1095.91,1910.77 1100.5,1912C 1104.17,1913.67 1106.33,1916.5 1107,1920.5C 1107.33,1927.83 1107.67,1935.17 1108,1942.5C 1108.11,1947.32 1108.95,1951.98 1110.5,1956.5C 1107.57,1957.48 1104.57,1957.82 1101.5,1957.5C 1101.66,1956.13 1101.49,1954.79 1101,1953.5C 1092.13,1960.94 1083.13,1961.27 1074,1954.5C 1069.86,1946.74 1071.03,1939.9 1077.5,1934C 1084.38,1931.74 1091.38,1929.91 1098.5,1928.5C 1100.08,1924.16 1098.75,1920.99 1094.5,1919C 1086.46,1916.68 1081.46,1919.51 1079.5,1927.5C 1077.25,1926.63 1074.92,1926.29 1072.5,1926.5C 1073.28,1917.72 1077.95,1912.39 1086.5,1910.5 Z M 1098.5,1935.5 C 1101.14,1944.74 1097.64,1950.4 1088,1952.5C 1083.4,1952.56 1080.57,1950.39 1079.5,1946C 1080.1,1943.53 1081.44,1941.53 1083.5,1940C 1088.75,1938.93 1093.75,1937.43 1098.5,1935.5 Z"/></g>
<g><path style="opacity:0.887" fill="#000000" d="M 982.5,1911.5 C 985.167,1911.5 987.833,1911.5 990.5,1911.5C 990.343,1912.87 990.51,1914.21 991,1915.5C 992.579,1913.96 994.413,1912.79 996.5,1912C 1003.99,1909.94 1010.16,1911.78 1015,1917.5C 1016.45,1931.09 1016.95,1944.76 1016.5,1958.5C 1013.83,1958.5 1011.17,1958.5 1008.5,1958.5C 1008.67,1946.83 1008.5,1935.16 1008,1923.5C 1004.41,1918.09 999.906,1917.25 994.5,1921C 992.683,1922.8 991.516,1924.97 991,1927.5C 990.5,1937.83 990.334,1948.16 990.5,1958.5C 987.833,1958.5 985.167,1958.5 982.5,1958.5C 982.5,1942.83 982.5,1927.17 982.5,1911.5 Z"/></g>
<g><path style="opacity:0.897" fill="#000000" d="M 1059.5,1911.5 C 1062.19,1911.34 1064.85,1911.5 1067.5,1912C 1069.18,1912.35 1070.18,1913.35 1070.5,1915C 1069.93,1916.87 1069.27,1918.7 1068.5,1920.5C 1065.94,1920.78 1063.28,1920.95 1060.5,1921C 1058.67,1921.5 1057.5,1922.67 1057,1924.5C 1055.59,1935.77 1055.09,1947.1 1055.5,1958.5C 1052.83,1958.5 1050.17,1958.5 1047.5,1958.5C 1047.5,1943.17 1047.5,1927.83 1047.5,1912.5C 1049.83,1912.5 1052.17,1912.5 1054.5,1912.5C 1054.34,1913.87 1054.51,1915.21 1055,1916.5C 1056.06,1914.34 1057.56,1912.67 1059.5,1911.5 Z"/></g>
</svg>
